<?xml version="1.0" encoding="UTF-8"?>
<svg id="Layer_2" data-name="Layer 2" xmlns="http://www.w3.org/2000/svg" viewBox="0 0 239.28 265.44">
  <defs>
    <style>
      .cls-1 {
        fill: #fff;
      }

      .cls-2 {
        fill: #afb1b3;
      }

      .cls-3 {
        fill: #cd3d96;
      }

      .cls-4 {
        fill: #0ba24a;
      }

      .cls-5 {
        fill: #abadaf;
      }

      .cls-6 {
        fill: #fcf062;
      }
    </style>
  </defs>
  <g id="Layer_1-2" data-name="Layer 1">
    <g>
      <path class="cls-1" d="M.02,71.7C.02,48.13,.03,24.56,0,.98,0,.16,.16,0,.98,0c79.11,.02,158.21,.02,237.32,0,.82,0,.98,.16,.98,.98-.02,87.82-.02,175.65,0,263.47,0,.82-.16,.98-.98,.98-41.95-.03-83.9-.02-125.85-.02-.11-.39,.18-.57,.4-.79,5.89-6.21,11.8-12.41,17.65-18.66,1.68-1.8,3.51-3.47,5-5.43l-.03-.03c.08-.08,.16-.16,.24-.24,0,0,0,0,0,0,.08-.08,.16-.16,.24-.24h0c.08-.08,.16-.16,.24-.24h.01c1.68-1.59,3.37-3.17,4.79-5.03h-.01c.08-.09,.16-.17,.25-.25h0c.08-.08,.16-.16,.25-.24h0c.09-.08,.18-.16,.27-.24,.15-.15,.3-.31,.45-.46,.91-.94,1.97-1.73,2.65-2.88h-.01c.08-.09,.16-.18,.24-.26h.01c.29-.02,.43-.2,.48-.47h-.01c.08-.09,.16-.17,.25-.25h0c.08-.08,.16-.16,.25-.24h0c.09-.08,.18-.16,.27-.24,.15-.15,.3-.31,.45-.46,.25-.18,.48-.38,.5-.72h0c.92-.52,1.61-1.27,2.15-2.16h0c.29-.03,.43-.21,.48-.49h-.01c.08-.09,.16-.17,.25-.25h0c.08-.08,.16-.16,.25-.24h0c.09-.08,.18-.16,.27-.24,.23-.24,.46-.47,.68-.71,.17-.12,.28-.27,.25-.49v.02c.94-.51,1.62-1.26,2.16-2.16,0,0-.01-.01-.01-.01,.08-.08,.16-.16,.24-.24h.01c.29-.02,.43-.2,.48-.47h-.01c.08-.09,.16-.17,.25-.25h0c.08-.08,.16-.16,.25-.24,0,0,0,0,0,0l.27-.25c.15-.15,.3-.31,.45-.46,.18-.12,.28-.27,.25-.5h0c.16,0,.24-.08,.24-.24l.02,.02c.85-.43,1.45-1.1,1.91-1.92,0,0-.01-.01-.01-.01,.08-.08,.16-.16,.24-.24,0,0,.01,.01,.01,.01,.29-.03,.43-.21,.48-.49h-.01c.08-.08,.16-.17,.25-.25h0c.08-.08,.16-.16,.25-.24h0c.09-.07,.18-.16,.27-.24,.15-.15,.3-.31,.45-.46,.18-.12,.3-.26,.25-.5h0c.17,0,.24-.08,.24-.24h0c.16,0,.23-.09,.24-.24l.02,.02c.84-.43,1.45-1.1,1.91-1.92,0,0-.01-.01-.01-.01,.08-.08,.16-.16,.24-.24,0,0,.01,.01,.01,.01,.29-.03,.43-.21,.48-.49h-.01c.08-.08,.16-.17,.25-.25h0c.08-.08,.16-.16,.25-.24,0,0,0,0,0,0,.09-.08,.18-.17,.27-.25,.15-.15,.3-.31,.45-.46,.18-.12,.28-.27,.25-.5h0c.16,0,.24-.08,.24-.24l.02,.02c.85-.43,1.45-1.1,1.91-1.92h-.01c.08-.09,.16-.17,.24-.26h.01c.29-.02,.43-.2,.48-.47h-.01c.08-.08,.16-.17,.25-.25h0c.08-.08,.16-.16,.25-.24,0,0,0,0,0,0,.09-.08,.18-.16,.27-.25,.15-.15,.3-.31,.45-.46,.18-.12,.3-.26,.25-.5h0c.17,0,.24-.08,.24-.24l.02,.02c.93-.51,1.61-1.26,2.15-2.16h-.01c.08-.09,.16-.17,.24-.26h.01c.29-.02,.43-.2,.48-.47h-.01c.08-.08,.16-.17,.25-.25h0c.08-.08,.16-.16,.25-.24h0c.09-.08,.18-.16,.27-.24,.15-.15,.3-.31,.45-.46,.18-.12,.28-.27,.25-.5h0c.16,0,.24-.08,.24-.24l.02,.02c.92-.52,1.61-1.26,2.15-2.16h0c.29-.03,.43-.21,.48-.49,0,0-.01,0-.01,0,.08-.08,.16-.16,.25-.25,0,0,0,0,0,0,.08-.08,.16-.17,.25-.25,0,0,0,0,0,0,.09-.08,.18-.16,.27-.25,.23-.24,.46-.47,.68-.71,.17-.12,.28-.27,.25-.49v.02c.94-.51,1.62-1.26,2.16-2.16h-.01c.08-.09,.16-.17,.24-.26,0,0,.01,.01,.01,.01,.29-.03,.43-.21,.48-.49h-.01c.08-.09,.16-.17,.25-.25h0c.09-.07,.19-.16,.28-.24l.44-.46c.18-.12,.3-.26,.25-.5h0c.17,0,.24-.08,.24-.24h0c.16,0,.24-.08,.24-.24l.02,.02c.85-.43,1.45-1.11,1.91-1.92h-.01c.08-.09,.16-.17,.24-.26,0,0,.01,.01,.01,.01,.29-.03,.43-.21,.48-.49,0,0-.01,0-.01,0,.08-.08,.16-.16,.25-.25h0c.08-.08,.16-.16,.25-.24,0,0,0,0,0,0,.09-.08,.18-.17,.27-.25,.15-.15,.3-.31,.45-.46,.18-.12,.28-.27,.25-.5h0c.16,0,.24-.08,.24-.24l.02,.02c.92-.52,1.62-1.26,2.15-2.16,0,0-.01-.01-.01-.01,.08-.08,.16-.16,.24-.24,0,0,.01,.01,.01,.01,.29-.03,.43-.21,.48-.49h-.01c.08-.08,.16-.17,.25-.25h0c.08-.07,.17-.16,.25-.24h0c.09-.07,.18-.16,.27-.24,.07-.07,.14-.15,.21-.22,.18-.12,.3-.26,.25-.5h0c.16,0,.24-.08,.24-.24h0c.16,0,.24-.08,.24-.24l.02,.02c.3-.02,.45-.19,.48-.48h-.02c.15-.02,.23-.11,.24-.26v.02c.6-.21,.98-.63,1.21-1.2h-.01c.08-.09,.16-.17,.24-.26h.01c.29-.02,.43-.2,.48-.47h-.01c.08-.08,.16-.17,.25-.25h0c.08-.07,.17-.16,.25-.24h0c.09-.07,.18-.16,.27-.24,.15-.15,.3-.31,.45-.46,.18-.12,.28-.27,.25-.5h0c.16,0,.24-.08,.24-.24l.02,.02c.3-.02,.45-.19,.48-.48h-.02c.15-.02,.23-.11,.24-.26h0c.15,0,.23-.09,.24-.24h.01c.29-.02,.44-.19,.48-.47h-.01c.08-.09,.16-.17,.24-.25,0,0,.01,.01,.01,.01,.92-.34,.98-1.21,1.12-1.97,1.68-8.84,3.33-17.69,5-26.54,1.53-8.1,3.07-16.2,4.6-24.3,2.22-11.78,4.43-23.56,6.65-35.35,.97-5.17,1.93-10.34,2.9-15.5,.07-.4,.24-.82-.39-.9-.15-.06-.31-.12-.46-.18-.09-.01-.18-.03-.27-.04-1.24-.12-2.47-.41-3.69-.43-1.51-.03-2.98-.38-4.46-.51-1.85-.17-3.74-.46-5.61-.78-1.9-.33-3.83-.46-5.75-.71-2.2-.29-4.39-.73-6.61-.91-2.1-.17-4.23-.4-6.28-.72-2.97-.46-5.96-.78-8.93-1.22-4.53-.68-9.08-1.2-13.62-1.79-5.33-.69-10.66-1.38-15.99-2.07-4.62-.6-9.26-1.07-13.86-1.84-5.36-.89-10.68-.87-16.05-.24-4.71,.55-9.44,.93-14.16,1.36-3.95,.36-7.9,.7-11.85,1.03-2.46,.21-4.89,.63-7.36,.72-2.78,.1-5.56,.48-8.33,.74-4.84,.45-9.68,.91-14.52,1.35-3.85,.35-7.7,.69-11.55,1.04-4.01,.37-8.01,.75-12.02,1.12-3.81,.35-7.62,.69-11.43,1.04-3.88,.36-7.75,.75-11.63,1.1-3.69,.34-7.38,.66-11.08,.99-.16,.01-.33,.02-.49,.03-.14,.01-.28,.03-.43,.04-.59-.16-.73,.13-.78,.67-.04,.47,.25,1-.22,1.41Z"/>
      <path class="cls-1" d="M111.52,264.93c0,.16-.02,.32-.03,.48-36.78,0-73.56,0-110.34,.03-1.01,0-1.15-.25-1.15-1.18C.03,200.23,.02,136.21,.02,72.18c.82-.03,.24,.86,.7,1.06,0,0,0,.06,0,.06,.08,.62-.18,1.29,.26,1.85l-.02,.06c.02,.91,.04,1.82,.17,2.73,.39,2.78,.62,5.59,1.1,8.36,.16,.95-.26,2.1,.68,2.88-.05,.98-.58,2,.25,2.9-.33,.24-.2,.56-.15,.87,.21,1.49,.42,2.99,.6,4.48,.58,4.81,1.14,9.63,1.74,14.45,.6,4.84,1.26,9.68,1.85,14.52,.6,4.93,1.13,9.86,1.78,14.78,.09,.71-.2,1.65,.64,2.18,.03,.85-.33,1.62,.09,2.58,.25,.56-.11,1.53,.4,2.24-.19,.12-.24,.31-.21,.52,.26,2.16,.52,4.32,.79,6.49,.52,4.13,.98,8.27,1.61,12.38,.15,.95-.26,2.1,.68,2.89-.23,2.29,.07,4.53,.73,6.73-.07,.13-.22,.27-.2,.4,.16,1.54,.33,3.07,.52,4.61,.52,4.17,1.01,8.35,1.62,12.51,.19,1.27,0,2.63,.69,3.81h-.01c.54,1.1,1.57,1.54,2.65,1.92h0c.05,.44,.37,.5,.73,.48,0,0,0,0,0,0,.08,.08,.17,.17,.25,.25,0,0,0,0,0,0,.08,.08,.17,.17,.25,.25h0c.1,.2,.28,.26,.49,.24h0c.06,.43,.37,.49,.73,.48h0c.08,.07,.17,.16,.25,.24,0,0,0,0,0,0,.09,.22,.27,.27,.49,.25h0c.08,.07,.17,.16,.25,.24h0c.09,.23,.27,.27,.49,.24h-.01c0,.15,.1,.22,.25,.24h0c.04,.45,.44,.44,.73,.6,2.28,1.99,4.88,3.55,7.33,5.31,3.77,2.71,7.63,5.31,11.45,7.95,2.73,1.88,5.36,3.91,8.25,5.56,.34,.57,.82,.93,1.5,.97h0c.08,.08,.17,.16,.25,.24,0,0-.01,0-.01,0,.09,.22,.28,.27,.49,.25,0,0-.01,0-.01,0,.08,.08,.17,.17,.25,.25,0,0,0,0,0,0,.08,.08,.17,.17,.25,.25h-.01c.11,.19,.28,.25,.49,.24h0c.04,.44,.44,.45,.73,.6,.68,.63,1.3,1.35,2.28,1.55,.12,.08,.24,.17,.36,.25,0,0-.01,0-.01,0,.1,.21,.27,.27,.49,.25h-.01c.06,.44,.36,.51,.73,.48h0c0,.15,.1,.22,.25,.24h0c.06,.43,.37,.49,.73,.48,0,0,0,0,0,0,.08,.08,.17,.17,.25,.25,0,0-.01,0-.01,0,.1,.21,.27,.27,.49,.25h-.01c.06,.44,.36,.5,.73,.48h0c.27,.81,.94,1.06,1.69,1.2h0c.05,.44,.37,.5,.73,.48h0c.08,.07,.17,.16,.25,.24h0c.06,.43,.37,.49,.73,.48h0c.06,.43,.37,.49,.73,.48h0c.08,.07,.17,.16,.25,.24h0c.09,.22,.27,.26,.49,.24h-.01c.06,.43,.36,.51,.73,.48h0c0,.15,.11,.22,.25,.24,0,0,0,0,0,0,.08,.08,.17,.17,.25,.25,0,0,0,0,0,0,.16,.12,.32,.24,.49,.36,2.24,1.97,4.81,3.5,7.22,5.23,3.86,2.78,7.79,5.47,11.72,8.15,1.3,.88,2.47,1.97,3.95,2.56,.12,.08,.24,.17,.37,.25h-.01c.1,.2,.28,.26,.49,.24h-.01c.06,.43,.36,.51,.73,.48h0c0,.15,.1,.22,.25,.24h0c.06,.43,.37,.49,.73,.48,0,0,0,0,0,0,.08,.08,.17,.17,.25,.25,0,0-.01,0-.01,0,.1,.21,.27,.27,.49,.25h-.01c.05,.44,.37,.5,.73,.48h0c.27,.81,.94,1.05,1.69,1.2h0c.08,.07,.17,.16,.25,.24h-.01c.09,.22,.28,.26,.49,.24h0c.08,.07,.17,.16,.25,.24h0c.08,.23,.27,.28,.49,.24h0c0,.16,.1,.22,.25,.24h0c.06,.43,.37,.49,.73,.48h0c.08,.07,.17,.16,.25,.24h0c.09,.22,.27,.26,.49,.24h-.01c.06,.44,.36,.51,.73,.48h0c0,.15,.11,.22,.25,.24,0,0,0,0,0,0,.08,.08,.17,.17,.25,.25h0c.1,.21,.28,.25,.49,.24,0,0-.01,0-.01,0,.08,.08,.17,.17,.25,.25h-.01c.1,.2,.27,.26,.49,.24h0c.08,.07,.17,.16,.25,.24h0c.09,.23,.27,.26,.49,.24h-.01c0,.15,.1,.22,.25,.24h0c.06,.43,.37,.49,.73,.48,0,0,0,0,0,0,.08,.08,.17,.17,.25,.25,0,0-.01,0-.01,0,.1,.21,.28,.27,.49,.25h-.01c.06,.43,.36,.5,.73,.48h0c.26,.82,.94,1.05,1.69,1.2h0c.06,.44,.37,.5,.73,.48h0c.35,.86,1.17,1.12,1.92,1.44h0c.09,.22,.27,.26,.49,.24h0c.08,.07,.17,.16,.25,.24h0c.09,.23,.27,.26,.49,.24h-.01c.08,.1,.17,.21,.25,.31,.4,.23,.65,.75,1.23,.64Z"/>
      <path class="cls-5" d="M.72,73.25c-.46-.21,.12-1.09-.7-1.07v-.48c.47-.4,.18-.94,.22-1.41,.04-.53,.19-.82,.78-.67-.01,.13-.02,.26-.03,.38-.32,.05-.46,.17-.37,.55,.21,.88,.11,1.79,.1,2.68Z"/>
      <path class="cls-4" d="M202.9,74.8c-3.54,1-7.08,1.99-10.62,2.99-.03,.59-.21,.86-.75,.34-.07,0-.15,0-.22,.02-.55,.37-1.02,.89-1.55,1.3,.53-.41,.99-.93,1.55-1.3-1.5,.04-2.83,.84-4.31,.99-4.35,1.27-8.7,2.55-13.06,3.81-2.22,.65-4.44,1.28-6.66,1.91-7.47,2.11-14.94,4.19-22.41,6.31-7.68,2.18-15.36,4.41-23.04,6.61-.5,.14-1,.27-1.5,.4-.22,4.17-.44,8.34-.67,12.51-.09,1.71-.09,3.42-.22,5.13-.29,4.13-.32,8.27-.56,12.41-.28,4.93-.52,9.85-.74,14.78-.13,3.02-.32,6.04-.47,9.06-.24,4.81-.52,9.61-.73,14.42-.14,3.18-.32,6.36-.48,9.54-.24,4.73-.53,9.45-.72,14.18-.13,3.1-.32,6.2-.47,9.3-.25,4.89-.5,9.77-.73,14.66-.21,4.65-.48,9.3-.71,13.94-.24,4.85-.46,9.7-.72,14.54-.25,4.65-.56,9.29-.7,13.95-.08,2.54-.3,5.08-.45,7.62-.02,.33,0,.66-.45,.71,0,.16-.02,.32-.03,.48h.96c-.11-.39,.18-.57,.4-.79,5.89-6.21,11.8-12.41,17.65-18.66,1.68-1.8,3.51-3.47,5-5.43l-.03-.03c.08-.08,.16-.16,.24-.24,0,0,0,0,0,0,.08-.08,.16-.16,.24-.24,0,0,0,0,0,0,.08-.08,.16-.16,.24-.24,0,0,.01,.01,.01,.01,.14-1.03,.53-1.85,1.49-2.43,.85-.51,1.56-1.22,2.24-1.95,.29-.31,.54-.72,1.07-.67,0,0-.01,0-.01,0,.08-.08,.16-.16,.25-.25,0,0,0,0,0,0,.08-.08,.16-.16,.25-.25,0,0,0,0,0,0,.09-.08,.18-.16,.27-.25,.15-.15,.3-.31,.45-.46,.19-1.6,1.5-2.17,2.65-2.88,0,0-.01-.01-.01-.01,.08-.08,.16-.16,.24-.24,0,0,.01,.01,.01,.01-.03-.35,.13-.5,.48-.49,0,0-.01,0-.01,0,.08-.08,.16-.16,.25-.25,0,0,0,0,0,0,.08-.08,.16-.16,.25-.25,0,0,0,0,0,0,.09-.08,.18-.17,.27-.25,.15-.15,.3-.31,.45-.46,0-.36-.05-.75,.5-.72,0,0,0,0,0,0,.38-1.06,1.1-1.77,2.15-2.16,0,0,0,0,0,0-.03-.35,.13-.5,.48-.49,0,0-.01,0-.01,0,.08-.08,.16-.16,.25-.25,0,0,0,0,0,0,.08-.08,.16-.16,.25-.25,0,0,0,0,0,0,.09-.08,.18-.16,.27-.25,.23-.24,.46-.47,.68-.71,0-.21,.03-.4,.25-.49,0,0,.01,.02,.01,.02,.38-1.05,1.1-1.77,2.15-2.16,0,0-.01-.01-.01-.01,.08-.08,.16-.16,.24-.24,0,0,.01,.01,.01,.01-.03-.35,.13-.5,.48-.49,0,0-.01,0-.01,0,.08-.08,.16-.16,.25-.25,0,0,0,0,0,0,.08-.08,.16-.16,.25-.25,0,0,0,0,0,0,.09-.08,.18-.17,.27-.25,.15-.15,.3-.31,.45-.46,0-.21,.02-.41,.25-.5,0,0,0,0,0,0,.08-.08,.16-.16,.24-.24,0,0,.02,.02,.02,.02,.3-.97,.95-1.6,1.91-1.92,0,0-.01-.01-.01-.01,.08-.08,.16-.16,.24-.24,0,0,.01,.01,.01,.01-.03-.35,.13-.5,.48-.49,0,0-.01,0-.01,0,.08-.08,.16-.16,.25-.25,0,0,0,0,0,0,.08-.08,.16-.16,.25-.25,0,0,0,0,0,0,.09-.08,.18-.16,.27-.25,.15-.15,.3-.31,.45-.46,0-.21,.02-.41,.25-.5,0,0,0,0,0,0,.08-.08,.16-.16,.24-.24,0,0,0,0,0,0,.08-.08,.16-.16,.24-.24,0,0,.02,.02,.02,.02,.31-.97,.95-1.6,1.91-1.92,0,0-.01-.01-.01-.01,.08-.08,.16-.16,.24-.24,0,0,.01,.01,.01,.01-.03-.35,.13-.5,.48-.49,0,0-.01,0-.01,0,.08-.08,.16-.16,.25-.25,0,0,0,0,0,0,.08-.08,.16-.16,.25-.25,0,0,0,0,0,0,.09-.08,.18-.17,.27-.25,.15-.15,.3-.31,.45-.46,0-.21,.02-.41,.25-.5,0,0,0,0,0,0,.08-.08,.16-.16,.24-.24,0,0,.02,.02,.02,.02,.3-.97,.95-1.6,1.91-1.92,0,0-.01-.01-.01-.01,.08-.08,.16-.16,.24-.24,0,0,.01,.01,.01,.01-.03-.35,.13-.5,.48-.49,0,0-.01,0-.01,0,.08-.08,.16-.16,.25-.25,0,0,0,0,0,0,.08-.08,.16-.16,.25-.25,0,0,0,0,0,0,.09-.08,.18-.16,.27-.25,.15-.15,.3-.31,.45-.46,0-.21,.02-.41,.25-.5,0,0,0,0,0,0,.08-.08,.16-.16,.24-.24,0,0,.02,.02,.02,.02,.38-1.06,1.11-1.77,2.15-2.16,0,0-.01-.01-.01-.01,.08-.08,.16-.16,.24-.24,0,0,.01,.01,.01,.01-.03-.35,.13-.5,.48-.49,0,0-.01,0-.01,0,.08-.08,.16-.16,.25-.25,0,0,0,0,0,0,.08-.08,.16-.17,.25-.25,0,0,0,0,0,0,.09-.08,.18-.17,.27-.25,.15-.15,.3-.31,.45-.46,0-.21,.02-.41,.25-.5,0,0,0,0,0,0,.08-.08,.16-.16,.24-.24,0,0,.02,.02,.02,.02,.38-1.05,1.11-1.77,2.15-2.16,0,0,0,0,0,0-.03-.35,.13-.5,.48-.49,0,0-.01,0-.01,0,.08-.08,.16-.16,.25-.25,0,0,0,0,0,0,.08-.08,.16-.17,.25-.25,0,0,0,0,0,0,.09-.08,.18-.16,.27-.25,.23-.24,.46-.47,.68-.71,0-.21,.03-.4,.25-.49,0,0,.01,.02,.01,.02,.38-1.06,1.11-1.77,2.15-2.16,0,0-.01-.01-.01-.01,.08-.08,.16-.16,.24-.24,0,0,.01,.01,.01,.01-.03-.35,.13-.5,.48-.49,0,0-.01,0-.01,0,.08-.08,.16-.16,.25-.25,0,0,0,0,0,0,.09-.08,.19-.16,.28-.24,.15-.15,.29-.31,.44-.46,0-.21,.02-.41,.25-.5,0,0,0,0,0,0,.08-.08,.16-.16,.24-.24,0,0,0,0,0,0,.08-.08,.16-.16,.24-.24,0,0,.02,.02,.02,.02,.3-.97,.95-1.6,1.91-1.92,0,0-.01-.01-.01-.01,.08-.08,.16-.16,.24-.24,0,0,.01,.01,.01,.01-.03-.35,.13-.5,.48-.49,0,0-.01,0-.01,0,.08-.08,.16-.16,.25-.25,0,0,0,0,0,0,.08-.08,.16-.17,.25-.25,0,0,0,0,0,0,.09-.08,.18-.17,.27-.25,.15-.15,.3-.31,.45-.46,0-.21,.02-.41,.25-.5,0,0,0,0,0,0,.08-.08,.16-.16,.24-.24,0,0,.02,.02,.02,.02,.38-1.05,1.11-1.77,2.15-2.16,0,0-.01-.01-.01-.01,.08-.08,.16-.16,.24-.24,0,0,.01,.01,.01,.01-.03-.35,.13-.5,.48-.49,0,0-.01,0-.01,0,.08-.08,.16-.17,.25-.25,0,0,0,0,0,0,.08-.08,.16-.16,.25-.25,.09-.08,.17-.16,.26-.24,.07-.07,.14-.15,.21-.22,0-.21,.02-.41,.25-.5,0,0,0,0,0,0,.08-.08,.16-.16,.24-.24,0,0,0,0,0,0,.08-.08,.16-.16,.24-.24,0,0,.02,.02,.02,.02-.03-.35,.13-.51,.48-.48,0,0-.01-.01-.01-.01,.08-.08,.16-.16,.24-.24,0,0,.01,.02,.01,.02,.08-.72,.48-1.12,1.2-1.2,0,0-.01-.01-.01-.01,.08-.08,.16-.16,.24-.24,0,0,.01,.01,.01,.01-.03-.35,.13-.5,.48-.49,0,0-.01,0-.01,0,.08-.08,.16-.16,.25-.25,0,0,0,0,0,0,.08-.08,.17-.17,.25-.25,0,0,0,0,0,0,.09-.08,.18-.17,.27-.25,.15-.15,.3-.31,.45-.46,0-.21,.02-.4,.25-.5,0,0,0,0,0,0,.08-.08,.16-.16,.24-.24,0,0,.02,.02,.02,.02-.03-.35,.13-.51,.48-.48,0,0-.01-.01-.01-.01,.08-.08,.16-.16,.24-.24,0,0,0,0,0,0,.08-.08,.16-.16,.24-.24,0,0,.01,.01,.01,.01-.03-.35,.13-.51,.48-.48,0,0-.01,0-.01,0,.08-.08,.16-.16,.24-.24,0,0,.01,.01,.01,.01,1.72-4.93,2.17-10.13,3.24-15.2,.89-4.18,1.64-8.4,2.42-12.61,1.02-5.53,2.07-11.06,3.12-16.59,.81-4.24,1.61-8.49,2.4-12.73,1.09-5.88,2.22-11.76,3.33-17.64,1.05-5.57,2.06-11.14,3.17-16.7,.77-3.85,1.43-7.71,2.12-11.57,.08-.43,.04-.87,.05-1.31-4.84,1.36-9.68,2.73-14.52,4.09Zm-66.91,160.54c-.07-.03-.17-.04-.19-.09-.02-.05,.05-.13,.08-.2,.07,.03,.13,.06,.2,.09-.03,.07-.06,.13-.09,.2Zm5.52-12.21c-.07-.03-.17-.04-.19-.09-.02-.05,.05-.13,.08-.2,.07,.03,.17,.04,.19,.09,.02,.05-.05,.13-.07,.2Zm2.05-7.69s-.06-.13-.08-.19c.07-.03,.15-.09,.2-.07,.05,.02,.06,.12,.08,.19-.07,.03-.15,.09-.2,.07Zm5.46-7.85c-.17,0-.33-.1-.28-.27,.03-.13,.18-.27,.31-.31,.17-.05,.26,.11,.28,.28-.03,.17-.13,.29-.3,.3Zm.86-1.9c-.63,.01-.55-.56-.7-.91-.1-.24,.03-.51,.34-.44,.51,.11,.45,.67,.68,.91,.06,.35-.11,.44-.32,.45Zm-.01-2.88c-.26,0-.48-.07-.44-.39,.03-.25,.24-.28,.44-.28,.22,0,.37,.1,.4,.34-.03,.23-.18,.34-.4,.34Zm14.4-36.28c-.07-.03-.17-.04-.19-.09-.02-.05,.05-.13,.08-.2,.07,.03,.17,.04,.19,.09,.02,.05-.05,.13-.08,.2Zm2.04-5.89c-.12-.07-.26-.11-.28-.19-.05-.19,.1-.27,.26-.25,.08,.01,.2,.12,.21,.19,0,.07-.11,.15-.19,.24Zm1.8-2.7c-.08-.02-.12-.15-.18-.22,.08-.06,.16-.12,.35-.26,.05,.1,.14,.2,.14,.29,0,.21-.16,.24-.31,.19Zm4.2-15.81c-.16,.01-.35-.02-.32-.23,.02-.13,.14-.25,.19-.33,.25-.02,.38,.04,.38,.24,0,.17-.07,.31-.26,.33Zm13.51-48.4c-.21,0-.42-.05-.39-.3,.02-.2,.2-.33,.42-.35,.24-.02,.39,.1,.38,.33,0,.23-.18,.33-.4,.33Z"/>
      <path class="cls-5" d="M217.43,70.71c0-.07,0-.14,.02-.2,.63,.08,.47,.5,.39,.9-.97,5.17-1.93,10.34-2.9,15.5-2.21,11.78-4.43,23.57-6.65,35.35-1.53,8.1-3.07,16.2-4.6,24.3-1.67,8.85-3.32,17.69-5,26.54-.14,.75-.2,1.63-1.12,1.97,1.72-4.93,2.17-10.13,3.24-15.2,.89-4.18,1.64-8.4,2.42-12.61,1.02-5.53,2.07-11.06,3.12-16.59,.81-4.24,1.61-8.49,2.4-12.73,1.09-5.88,2.22-11.76,3.33-17.64,1.05-5.57,2.06-11.14,3.17-16.7,.77-3.85,1.43-7.71,2.13-11.57,.08-.43,.04-.87,.05-1.31Z"/>
      <path class="cls-5" d="M136.21,239.79c.14-1.03,.53-1.85,1.49-2.43,.85-.51,1.56-1.22,2.24-1.95,.29-.31,.54-.72,1.07-.67-1.42,1.85-3.11,3.44-4.79,5.04Z"/>
      <path class="cls-5" d="M142.19,233.56c.19-1.6,1.5-2.17,2.65-2.88-.68,1.15-1.74,1.94-2.65,2.88Z"/>
      <path class="cls-5" d="M187.03,186.09c.38-1.05,1.11-1.77,2.15-2.16-.54,.9-1.23,1.64-2.15,2.16Z"/>
      <path class="cls-5" d="M169.3,204.79c.38-1.06,1.11-1.77,2.15-2.16-.54,.9-1.22,1.65-2.15,2.16Z"/>
      <path class="cls-5" d="M178.17,195.44c.38-1.06,1.11-1.77,2.15-2.16-.54,.9-1.22,1.65-2.15,2.16Z"/>
      <path class="cls-5" d="M173.85,199.99c.38-1.05,1.11-1.77,2.15-2.16-.54,.9-1.23,1.64-2.15,2.16Z"/>
      <path class="cls-5" d="M151.56,223.49c.38-1.05,1.1-1.77,2.15-2.16-.54,.9-1.22,1.65-2.15,2.16Z"/>
      <path class="cls-5" d="M147.24,228.04c.38-1.06,1.1-1.77,2.15-2.16-.54,.89-1.23,1.64-2.15,2.16Z"/>
      <path class="cls-5" d="M182.72,190.64c.3-.97,.95-1.6,1.91-1.92-.46,.81-1.06,1.49-1.91,1.92Z"/>
      <path class="cls-5" d="M156.11,218.69c.3-.97,.95-1.6,1.91-1.92-.46,.82-1.07,1.49-1.91,1.92Z"/>
      <path class="cls-5" d="M164.98,209.34c.3-.97,.95-1.6,1.91-1.92-.46,.82-1.07,1.49-1.91,1.92Z"/>
      <path class="cls-5" d="M160.67,213.9c.31-.97,.95-1.6,1.91-1.92-.46,.81-1.07,1.49-1.91,1.92Z"/>
      <path class="cls-5" d="M192.3,180.57c.08-.72,.48-1.12,1.2-1.2-.23,.57-.61,.99-1.2,1.2Z"/>
      <path class="cls-5" d="M146.74,228.76c0-.36-.05-.75,.5-.72-.02,.34-.24,.54-.5,.72Z"/>
      <path class="cls-5" d="M180.56,193.04c-.03-.35,.13-.5,.48-.49-.04,.28-.18,.46-.48,.49Z"/>
      <path class="cls-5" d="M196.86,175.78c-.03-.35,.13-.51,.48-.48-.04,.28-.19,.45-.48,.48Z"/>
      <path class="cls-5" d="M195.9,176.74c-.03-.35,.13-.51,.48-.48-.03,.29-.18,.46-.48,.48Z"/>
      <path class="cls-5" d="M171.69,202.39c-.03-.35,.13-.5,.48-.49-.04,.27-.18,.46-.48,.49Z"/>
      <path class="cls-5" d="M162.82,211.74c-.03-.35,.13-.5,.48-.49-.04,.27-.18,.46-.48,.49Z"/>
      <path class="cls-5" d="M193.74,179.13c-.03-.35,.13-.5,.48-.49-.05,.27-.18,.46-.48,.49Z"/>
      <path class="cls-5" d="M189.43,183.69c-.03-.35,.13-.5,.48-.49-.04,.28-.18,.46-.48,.49Z"/>
      <path class="cls-5" d="M167.13,207.18c-.03-.35,.13-.5,.48-.49-.05,.27-.18,.46-.48,.49Z"/>
      <path class="cls-5" d="M149.4,225.88c-.03-.35,.13-.5,.48-.49-.04,.28-.18,.45-.48,.49Z"/>
      <path class="cls-5" d="M145.08,230.44c-.03-.35,.13-.5,.48-.49-.04,.28-.18,.45-.48,.49Z"/>
      <path class="cls-5" d="M158.26,216.53c-.03-.35,.13-.5,.48-.49-.04,.27-.18,.46-.48,.49Z"/>
      <path class="cls-5" d="M191.59,181.29c-.03-.35,.13-.51,.48-.48-.02,.29-.18,.46-.48,.48Z"/>
      <path class="cls-5" d="M176,197.83c-.03-.35,.13-.5,.48-.49-.04,.27-.18,.46-.48,.49Z"/>
      <path class="cls-5" d="M184.87,188.48c-.03-.35,.13-.5,.48-.49-.04,.28-.18,.46-.48,.49Z"/>
      <path class="cls-5" d="M153.95,221.09c-.03-.35,.13-.5,.48-.49-.04,.27-.18,.45-.48,.49Z"/>
      <path class="cls-5" d="M195.4,177.46c0-.21,.02-.4,.25-.5,.03,.22-.07,.38-.25,.5Z"/>
      <path class="cls-5" d="M155.61,219.41c0-.21,.02-.41,.25-.5,.03,.22-.07,.38-.25,.5Z"/>
      <path class="cls-5" d="M177.9,195.91c0-.21,.03-.4,.25-.49,.03,.22-.08,.37-.25,.49Z"/>
      <path class="cls-5" d="M190.85,182.25c0-.21,.02-.41,.25-.5,.05,.23-.07,.38-.25,.5Z"/>
      <path class="cls-5" d="M173.35,200.71c0-.21,.02-.41,.25-.5,.03,.22-.07,.38-.25,.5Z"/>
      <path class="cls-5" d="M151.29,223.96c0-.21,.03-.4,.25-.49,.03,.22-.08,.37-.25,.49Z"/>
      <path class="cls-5" d="M186.53,186.81c0-.21,.02-.41,.25-.5,.03,.22-.07,.38-.25,.5Z"/>
      <path class="cls-5" d="M168.79,205.51c0-.21,.02-.41,.25-.5,.05,.23-.07,.38-.25,.5Z"/>
      <path class="cls-5" d="M181.98,191.6c0-.21,.02-.41,.25-.5,.05,.23-.07,.38-.25,.5Z"/>
      <path class="cls-5" d="M164.48,210.06c0-.21,.02-.41,.25-.5,.03,.22-.07,.38-.25,.5Z"/>
      <path class="cls-5" d="M1.94,69.56c-.15,.19-.32,.23-.49,.03,.16-.01,.33-.02,.49-.03Z"/>
      <path class="cls-5" d="M159.92,214.86c0-.21,.02-.41,.25-.5,.05,.23-.07,.38-.25,.5Z"/>
      <path class="cls-5" d="M158.73,216.04c.08-.08,.16-.16,.25-.25-.08,.08-.16,.16-.25,.25Z"/>
      <path class="cls-5" d="M196.36,176.25c.08-.08,.16-.16,.24-.24-.01,.15-.09,.23-.24,.24Z"/>
      <path class="cls-5" d="M158.01,216.76c.08-.08,.16-.16,.24-.24-.08,.08-.16,.16-.24,.24Z"/>
      <path class="cls-5" d="M194.68,178.17c.09-.08,.18-.17,.27-.25-.09,.08-.18,.17-.27,.25Z"/>
      <path class="cls-5" d="M155.85,218.92c.08-.08,.16-.16,.24-.24,0,.16-.08,.24-.24,.24Z"/>
      <path class="cls-5" d="M194.44,178.41c.08-.08,.17-.17,.25-.25-.08,.08-.17,.17-.25,.25Z"/>
      <path class="cls-5" d="M154.89,220.12c.09-.08,.18-.17,.27-.25-.09,.08-.18,.17-.27,.25Z"/>
      <path class="cls-5" d="M154.65,220.36c.08-.08,.16-.16,.25-.25-.08,.08-.16,.16-.25,.25Z"/>
      <path class="cls-5" d="M154.41,220.6c.08-.08,.16-.16,.25-.25-.08,.08-.16,.16-.25,.25Z"/>
      <path class="cls-5" d="M194.2,178.65c.08-.08,.16-.17,.25-.25-.08,.08-.16,.17-.25,.25Z"/>
      <path class="cls-5" d="M153.69,221.32c.08-.08,.16-.16,.24-.24-.08,.08-.16,.16-.24,.24Z"/>
      <path class="cls-5" d="M193.49,179.36c.08-.08,.16-.16,.24-.24-.08,.08-.16,.16-.24,.24Z"/>
      <path class="cls-5" d="M192.05,180.8c.08-.08,.16-.16,.24-.24-.01,.15-.09,.23-.24,.24Z"/>
      <path class="cls-5" d="M191.33,181.52c.08-.08,.16-.16,.24-.24,0,.16-.09,.24-.24,.24Z"/>
      <path class="cls-5" d="M191.09,181.76c.08-.08,.16-.16,.24-.24,0,.15-.08,.24-.24,.24Z"/>
      <path class="cls-5" d="M190.37,182.72c.09-.08,.18-.17,.27-.25-.09,.08-.18,.17-.27,.25Z"/>
      <path class="cls-5" d="M190.13,182.96c.08-.08,.17-.17,.25-.25-.08,.08-.17,.17-.25,.25Z"/>
      <path class="cls-5" d="M150.34,224.91c.09-.08,.18-.16,.27-.25-.09,.08-.18,.16-.27,.25Z"/>
      <path class="cls-5" d="M189.89,183.2c.08-.08,.16-.17,.25-.25-.08,.08-.16,.17-.25,.25Z"/>
      <path class="cls-5" d="M150.1,225.15c.08-.08,.16-.16,.25-.25-.08,.08-.16,.16-.25,.25Z"/>
      <path class="cls-5" d="M149.86,225.39c.08-.08,.16-.16,.25-.25-.08,.08-.16,.16-.25,.25Z"/>
      <path class="cls-5" d="M189.17,183.92c.08-.08,.16-.16,.24-.24-.08,.08-.16,.16-.24,.24Z"/>
      <path class="cls-5" d="M186.78,186.32c.08-.08,.16-.16,.24-.24,0,.16-.09,.24-.24,.24Z"/>
      <path class="cls-5" d="M185.81,187.52c.09-.08,.18-.17,.27-.25-.09,.08-.18,.17-.27,.25Z"/>
      <path class="cls-5" d="M185.57,187.76c.08-.08,.16-.17,.25-.25-.08,.08-.16,.17-.25,.25Z"/>
      <path class="cls-5" d="M185.33,188c.08-.08,.16-.16,.25-.25-.08,.08-.16,.16-.25,.25Z"/>
      <path class="cls-5" d="M184.62,188.71c.08-.08,.16-.16,.24-.24-.08,.08-.16,.16-.24,.24Z"/>
      <path class="cls-5" d="M182.46,190.87c.08-.08,.16-.16,.24-.24,0,.16-.09,.24-.24,.24Z"/>
      <path class="cls-5" d="M182.22,191.11c.08-.08,.16-.16,.24-.24,0,.16-.08,.25-.24,.24Z"/>
      <path class="cls-5" d="M146.02,229.47c.09-.08,.18-.17,.27-.25-.09,.08-.18,.17-.27,.25Z"/>
      <path class="cls-5" d="M145.78,229.71c.08-.08,.16-.16,.25-.25-.08,.08-.16,.16-.25,.25Z"/>
      <path class="cls-5" d="M181.26,192.31c.09-.08,.19-.16,.28-.24-.09,.08-.19,.16-.28,.24Z"/>
      <path class="cls-5" d="M145.54,229.95c.08-.08,.16-.16,.25-.25-.08,.08-.16,.16-.25,.25Z"/>
      <path class="cls-5" d="M181.02,192.55c.08-.08,.16-.16,.25-.25-.08,.08-.16,.16-.25,.25Z"/>
      <path class="cls-5" d="M144.83,230.67c.08-.08,.16-.16,.24-.24-.08,.08-.16,.16-.24,.24Z"/>
      <path class="cls-5" d="M180.3,193.27c.08-.08,.16-.16,.24-.24-.08,.08-.16,.16-.24,.24Z"/>
      <path class="cls-5" d="M176.94,196.87c.09-.08,.18-.16,.27-.25-.09,.08-.18,.16-.27,.25Z"/>
      <path class="cls-5" d="M176.7,197.11c.08-.08,.16-.17,.25-.25-.08,.08-.16,.17-.25,.25Z"/>
      <path class="cls-5" d="M176.46,197.35c.08-.08,.16-.16,.25-.25-.08,.08-.16,.16-.25,.25Z"/>
      <path class="cls-5" d="M173.59,200.22c.08-.08,.16-.16,.24-.24,0,.16-.08,.24-.24,.24Z"/>
      <path class="cls-5" d="M141.47,234.26c.09-.08,.18-.16,.27-.25-.09,.08-.18,.16-.27,.25Z"/>
      <path class="cls-5" d="M141.23,234.5c.08-.08,.16-.16,.25-.25-.08,.08-.16,.16-.25,.25Z"/>
      <path class="cls-5" d="M140.99,234.74c.08-.08,.16-.16,.25-.25-.08,.08-.16,.16-.25,.25Z"/>
      <path class="cls-5" d="M172.63,201.42c.09-.08,.18-.17,.27-.25-.09,.08-.18,.17-.27,.25Z"/>
      <path class="cls-5" d="M172.39,201.66c.08-.08,.16-.17,.25-.25-.08,.08-.16,.17-.25,.25Z"/>
      <path class="cls-5" d="M135.96,240.02c.08-.08,.16-.16,.24-.24-.08,.08-.16,.16-.24,.24Z"/>
      <path class="cls-5" d="M135.72,240.26c.08-.08,.16-.16,.24-.24-.08,.08-.16,.16-.24,.24Z"/>
      <path class="cls-5" d="M135.48,240.5c.08-.08,.16-.16,.24-.24-.08,.08-.16,.16-.24,.24Z"/>
      <path class="cls-5" d="M172.15,201.9c.08-.08,.16-.16,.25-.25-.08,.08-.16,.16-.25,.25Z"/>
      <path class="cls-5" d="M171.43,202.62c.08-.08,.16-.16,.24-.24-.08,.08-.16,.16-.24,.24Z"/>
      <path class="cls-5" d="M169.04,205.01c.08-.08,.16-.16,.24-.24,0,.16-.08,.25-.24,.24Z"/>
      <path class="cls-5" d="M168.07,206.21c.09-.08,.18-.16,.27-.25-.09,.08-.18,.16-.27,.25Z"/>
      <path class="cls-5" d="M162.56,211.97c.08-.08,.16-.16,.24-.24-.08,.08-.16,.16-.24,.24Z"/>
      <path class="cls-5" d="M167.84,206.46c.08-.08,.16-.16,.25-.25-.08,.08-.16,.16-.25,.25Z"/>
      <path class="cls-5" d="M167.6,206.69c.08-.08,.16-.16,.25-.25-.08,.08-.16,.16-.25,.25Z"/>
      <path class="cls-5" d="M166.88,207.41c.08-.08,.16-.16,.24-.24-.08,.08-.16,.16-.24,.24Z"/>
      <path class="cls-5" d="M164.72,209.57c.08-.08,.16-.16,.24-.24,0,.16-.08,.24-.24,.24Z"/>
      <path class="cls-5" d="M163.76,210.77c.09-.08,.18-.17,.27-.25-.09,.08-.18,.17-.27,.25Z"/>
      <path class="cls-5" d="M163.52,211.01c.08-.08,.16-.16,.25-.25-.08,.08-.16,.16-.25,.25Z"/>
      <path class="cls-5" d="M163.28,211.25c.08-.08,.16-.16,.25-.25-.08,.08-.16,.16-.25,.25Z"/>
      <path class="cls-5" d="M195.64,176.97c.08-.08,.16-.16,.24-.24,0,.16-.09,.24-.24,.24Z"/>
      <path class="cls-5" d="M216.98,70.33c-.11,.1-.19,.07-.27-.04,.09,.01,.18,.03,.27,.04Z"/>
      <path class="cls-5" d="M160.41,214.12c.08-.08,.16-.16,.24-.24,0,.15-.08,.24-.24,.24Z"/>
      <path class="cls-5" d="M160.17,214.36c.08-.08,.16-.16,.24-.24,0,.16-.08,.25-.24,.24Z"/>
      <path class="cls-5" d="M197.32,175.29c.08-.08,.16-.16,.24-.24-.08,.08-.16,.16-.24,.24Z"/>
      <path class="cls-5" d="M196.6,176.01c.08-.08,.16-.16,.24-.24-.01,.15-.09,.23-.24,.24Z"/>
      <path class="cls-5" d="M159.2,215.56c.09-.08,.18-.16,.27-.25-.09,.08-.18,.16-.27,.25Z"/>
      <path class="cls-5" d="M158.97,215.8c.08-.08,.16-.16,.25-.25-.08,.08-.16,.16-.25,.25Z"/>
      <path class="cls-6" d="M.99,70.02c3.04,.69,6.08,1.38,9.12,2.07,.23,.05,.47,.05,.7,.08,1.77,.44,3.54,.91,5.32,1.33,13.67,3.25,27.34,6.5,41.02,9.74,7.15,1.7,14.31,3.37,21.47,5.06,4.89,1.15,9.78,2.3,14.67,3.46,9.02,2.14,18.04,4.29,27.06,6.44-.22,4.17-.44,8.34-.67,12.51-.09,1.71-.09,3.42-.22,5.13-.29,4.13-.32,8.27-.56,12.41-.28,4.93-.52,9.85-.74,14.78-.13,3.02-.32,6.04-.47,9.06-.24,4.81-.52,9.61-.73,14.42-.14,3.18-.32,6.36-.48,9.54-.24,4.73-.53,9.45-.72,14.18-.13,3.1-.32,6.2-.47,9.3-.25,4.89-.5,9.77-.73,14.66-.21,4.65-.48,9.3-.71,13.94-.24,4.85-.46,9.7-.72,14.54-.25,4.65-.56,9.29-.7,13.95-.08,2.54-.3,5.08-.45,7.62-.02,.33,0,.66-.45,.71-.58,.11-.83-.4-1.23-.64-.08-.11-.17-.21-.25-.32,0,0,.01,0,0,0-.1-.21-.28-.26-.49-.25,0,0,0,0,0,0-.08-.08-.17-.17-.25-.25,0,0,0,0,0,0-.1-.22-.28-.26-.49-.25,0,0,0,0,0,0-.37-.84-1.17-1.12-1.92-1.45,0,0,0,0,0,0-.13-.33-.37-.49-.73-.48,0,0,0,0,0,0-.39-.64-.99-.99-1.69-1.2,0,0,0,0,0,0-.13-.33-.38-.49-.73-.49,0,0,.01,0,.01,0-.1-.22-.28-.26-.49-.25,0,0,.01,0,.01,0-.08-.08-.17-.17-.25-.25,0,0,0,0,0,0-.13-.33-.37-.5-.73-.49,0,0,0,0,0,0-.08-.08-.17-.17-.25-.25,0,0,.01,0,.01,0-.1-.21-.28-.26-.49-.25,0,0,0,0,0,0-.08-.08-.17-.17-.25-.25,0,0,0,0,0,0-.1-.22-.28-.26-.49-.25,0,0,.01,0,.01,0-.08-.08-.17-.17-.25-.25,0,0,.01,0,.01,0-.09-.22-.28-.26-.49-.25,0,0,0,0,0,0-.08-.08-.17-.17-.25-.25,0,0,0,0,0,0-.08-.08-.17-.17-.25-.25,0,0,0,0,0,0-.13-.32-.38-.49-.73-.49,0,0,.01,0,0,0-.1-.21-.28-.26-.49-.25,0,0,0,0,0,0-.08-.08-.17-.17-.25-.25,0,0,0,0,0,0-.13-.33-.37-.5-.73-.48,0,0,0,0,0,0-.08-.08-.16-.16-.25-.25,0,0,0,0,0,0-.1-.21-.28-.26-.49-.24,0,0,0,0,0,0-.08-.08-.17-.16-.25-.25,0,0,0,0,0,0-.1-.22-.28-.26-.49-.25,0,0,.01,0,0,0-.08-.08-.17-.17-.25-.25,0,0,0,0,0,0-.39-.64-.99-.99-1.69-1.2,0,0,0,0,0,0-.13-.33-.38-.49-.73-.49,0,0,.01,0,.01,0-.1-.22-.28-.26-.49-.25,0,0,.01,0,.01,0-.08-.08-.17-.17-.25-.25,0,0,0,0,0,0-.13-.33-.37-.5-.73-.49,0,0,0,0,0,0-.08-.08-.17-.17-.25-.25,0,0,0,0,0,0-.13-.33-.38-.49-.73-.49,0,0,.01,0,.01,0-.1-.22-.28-.26-.49-.25,0,0,.01,0,.01,0-.12-.08-.24-.17-.37-.25-1.48-.6-2.65-1.68-3.95-2.56-3.93-2.68-7.86-5.37-11.72-8.15-2.41-1.74-4.98-3.26-7.22-5.23-.04-.29-.23-.37-.49-.36,0,0,0,0,0,0-.08-.08-.17-.17-.25-.25,0,0,0,0,0,0-.08-.08-.17-.17-.25-.25,0,0,0,0,0,0-.13-.32-.38-.49-.73-.49,0,0,.01,0,.01,0-.1-.21-.28-.26-.49-.25,0,0,0,0,0,0-.08-.08-.17-.17-.25-.25,0,0,0,0,0,0-.13-.33-.37-.5-.73-.48,0,0,0,0,0,0-.12-.34-.37-.5-.73-.48,0,0,0,0,0,0-.08-.08-.17-.17-.25-.25,0,0,0,0,0,0-.13-.33-.37-.49-.73-.48,0,0,0,0,0,0-.4-.64-.99-.99-1.69-1.2,0,0,0,0,0,0-.13-.33-.38-.49-.73-.49,0,0,.01,0,.01,0-.1-.22-.28-.26-.49-.25,0,0,.01,0,.01,0-.08-.08-.17-.17-.25-.25,0,0,0,0,0,0-.13-.33-.37-.5-.73-.48,0,0,0,0,0,0-.08-.08-.17-.17-.25-.25,0,0,0,0,0,0-.13-.32-.38-.49-.73-.49,0,0,.01,0,.01,0-.1-.22-.28-.26-.49-.25,0,0,.01,0,.01,0-.12-.08-.24-.17-.36-.25-.97-.2-1.6-.92-2.28-1.55-.07-.41-.32-.6-.73-.6,0,0,0,0,0,0-.09-.23-.28-.25-.49-.25,0,0,.01,0,.01,0-.08-.08-.17-.17-.25-.25,0,0,0,0,0,0-.08-.08-.17-.17-.25-.25,0,0,.01,0,.01,0-.1-.21-.28-.26-.49-.25,0,0,.01,0,.01,0-.08-.08-.17-.17-.25-.25,0,0,0,0,0,0-.33-.59-.84-.9-1.5-.97-2.89-1.65-5.52-3.67-8.25-5.56-3.82-2.64-7.68-5.24-11.45-7.95-2.45-1.76-5.05-3.31-7.33-5.31-.07-.41-.32-.6-.73-.6,0,0,0,0,0,0-.08-.08-.17-.17-.25-.25,0,0,.01,0,.01,0-.1-.21-.28-.26-.49-.25,0,0,0,0,0,0-.08-.08-.17-.17-.25-.25,0,0,0,0,0,0-.1-.21-.28-.26-.49-.25,0,0,0,0,0,0-.08-.08-.17-.17-.25-.25,0,0,0,0,0,0-.13-.33-.37-.5-.73-.48,0,0,0,0,0,0-.09-.23-.28-.25-.49-.25,0,0,0,0,0,0-.08-.08-.17-.17-.25-.25,0,0,0,0,0,0-.08-.08-.17-.17-.25-.25,0,0,0,0,0,0-.13-.33-.38-.49-.73-.49,0,0,0,0,0,0-.78-.78-1.51-1.63-2.65-1.93,0,0,.01,.01,.01,.01,.12-1.76-.37-3.47-.54-5.21-.38-3.87-.88-7.72-1.4-11.57-.21-1.52-.22-3.07-.68-4.55-.66-2.2-.96-4.44-.73-6.73-.26-2.09-.52-4.17-.77-6.26-.46-3.74-.9-7.48-1.4-11.22-.21-1.6-.26-3.23-.69-4.8-.51-.71-.16-1.68-.4-2.24-.42-.96-.06-1.73-.09-2.58-.08-.59-.17-1.18-.24-1.77-.42-3.54-.92-7.07-1.27-10.63-.35-3.51-.92-6.99-1.35-10.5-.51-4.09-.99-8.19-1.49-12.28-.47-3.86-.9-7.72-1.43-11.56-.21-1.52-.22-3.07-.68-4.55-.83-.9-.31-1.92-.25-2.9-.41-3.34-.76-6.7-1.28-10.02-.2-1.31,.04-2.72-.66-3.95,0,0,.02-.06,.02-.07-.06-.62,.21-1.29-.26-1.85,0,0,0-.07,0-.06,.01-.9,.12-1.8-.1-2.68-.09-.39,.04-.5,.37-.55Z"/>
      <path class="cls-3" d="M216.98,70.33c-.11,.1-.19,.07-.27-.04-1.24-.12-2.47-.41-3.69-.43-1.51-.03-2.98-.38-4.46-.51-1.85-.17-3.74-.46-5.61-.78-1.9-.33-3.83-.46-5.75-.71-2.2-.29-4.39-.73-6.61-.91-2.1-.17-4.23-.4-6.28-.72-2.97-.46-5.96-.78-8.93-1.22-4.53-.68-9.08-1.2-13.62-1.79-5.33-.69-10.66-1.38-15.99-2.07-4.62-.6-9.26-1.07-13.86-1.84-5.36-.89-10.68-.87-16.05-.24-4.71,.55-9.44,.93-14.16,1.36-3.95,.36-7.9,.7-11.85,1.03-2.46,.21-4.89,.63-7.36,.72-2.78,.1-5.56,.48-8.33,.74-4.84,.45-9.68,.91-14.52,1.35-3.85,.35-7.7,.69-11.55,1.04-4.01,.37-8.01,.75-12.02,1.12-3.81,.35-7.62,.69-11.43,1.04-3.88,.36-7.75,.75-11.63,1.1-3.69,.34-7.38,.66-11.08,.99-.15,.19-.32,.23-.49,.03-.14,.01-.28,.03-.43,.04-.01,.13-.02,.26-.03,.38,3.04,.69,6.08,1.38,9.12,2.07,.23,.05,.47,.05,.7,.08h0c1.77,.44,3.54,.91,5.32,1.33,13.67,3.25,27.34,6.5,41.02,9.74,7.15,1.7,14.31,3.37,21.47,5.06,4.89,1.15,9.78,2.3,14.67,3.46,9.02,2.14,18.04,4.29,27.06,6.44,.5-.13,1-.25,1.5-.4,7.68-2.2,15.35-4.43,23.04-6.61,7.46-2.12,14.94-4.2,22.41-6.31,2.22-.63,4.45-1.27,6.66-1.91,4.35-1.27,8.71-2.54,13.06-3.81,1.48-.15,2.81-.95,4.31-.99,.07-.01,.15-.02,.22-.02,.19-.24,.4-.45,.75-.35,3.54-.99,7.08-1.99,10.62-2.99,4.84-1.36,9.68-2.73,14.52-4.09,0-.07,0-.14,.02-.2-.16-.06-.31-.12-.46-.18Z"/>
      <path class="cls-2" d="M3.15,92.1c.46,1.48,.47,3.03,.68,4.55,.53,3.85,.96,7.71,1.43,11.56,.5,4.09,.98,8.19,1.49,12.28,.44,3.5,1.01,6.99,1.35,10.5,.35,3.55,.85,7.08,1.27,10.63,.07,.59,.16,1.18,.24,1.77-.84-.53-.55-1.46-.64-2.18-.65-4.92-1.18-9.86-1.78-14.78-.59-4.84-1.25-9.68-1.85-14.52-.6-4.81-1.15-9.63-1.74-14.45-.18-1.5-.39-2.99-.6-4.48-.04-.31-.18-.63,.15-.87Z"/>
      <path class="cls-2" d="M10.1,148.2c.44,1.57,.48,3.2,.69,4.8,.49,3.74,.94,7.48,1.4,11.22,.26,2.09,.52,4.17,.77,6.26-.94-.79-.53-1.93-.68-2.89-.63-4.11-1.09-8.25-1.61-12.38-.27-2.16-.53-4.32-.79-6.49-.03-.21,.02-.39,.21-.52Z"/>
      <path class="cls-2" d="M13.7,177.21c.45,1.48,.47,3.04,.68,4.55,.53,3.85,1.02,7.7,1.4,11.57,.17,1.74,.66,3.44,.54,5.21-.69-1.18-.5-2.54-.69-3.81-.61-4.16-1.1-8.34-1.62-12.51-.19-1.53-.36-3.07-.52-4.61-.01-.12,.13-.26,.2-.4Z"/>
      <path class="cls-2" d="M.96,75.23c.7,1.23,.46,2.63,.66,3.95,.51,3.33,.86,6.68,1.28,10.02-.94-.78-.51-1.93-.68-2.88-.48-2.77-.7-5.57-1.1-8.36-.13-.91-.14-1.82-.17-2.73Z"/>
      <path class="cls-2" d="M16.31,198.53c1.14,.29,1.87,1.15,2.65,1.93-1.07-.38-2.11-.81-2.65-1.93Z"/>
      <path class="cls-2" d="M106.93,261.82c.76,.33,1.55,.6,1.92,1.45-.76-.32-1.57-.58-1.92-1.45Z"/>
      <path class="cls-2" d="M60.9,229.7c.7,.21,1.29,.57,1.69,1.2-.75-.14-1.42-.39-1.69-1.2Z"/>
      <path class="cls-2" d="M104.53,260.14c.7,.21,1.29,.57,1.69,1.2-.74-.15-1.42-.38-1.69-1.2Z"/>
      <path class="cls-2" d="M94.22,252.95c.7,.21,1.29,.57,1.69,1.2-.75-.14-1.42-.39-1.69-1.2Z"/>
      <path class="cls-2" d="M50.78,222.74c.66,.07,1.17,.37,1.5,.97-.68-.04-1.16-.4-1.5-.97Z"/>
      <path class="cls-5" d="M.72,73.31c.46,.56,.2,1.23,.26,1.85-.44-.57-.18-1.23-.26-1.85Z"/>
      <path class="cls-2" d="M65.7,233.05c.35,0,.59,.16,.73,.49-.37,.03-.67-.05-.73-.49Z"/>
      <path class="cls-2" d="M97.58,255.35c.36-.01,.6,.15,.73,.48-.36,.01-.67-.05-.73-.48Z"/>
      <path class="cls-2" d="M92.06,251.51c.36-.01,.6,.15,.73,.49-.36,0-.67-.05-.73-.49Z"/>
      <path class="cls-2" d="M23.03,203.32c.41,0,.66,.19,.73,.6-.28-.15-.69-.15-.73-.6Z"/>
      <path class="cls-2" d="M93.5,252.47c.35,0,.6,.15,.73,.49-.36,.02-.67-.04-.73-.49Z"/>
      <path class="cls-2" d="M91.1,250.79c.35,0,.6,.16,.73,.49-.37,.03-.67-.05-.73-.49Z"/>
      <path class="cls-2" d="M99.02,256.31c.35,0,.59,.16,.73,.49-.37,.03-.67-.04-.73-.49Z"/>
      <path class="cls-2" d="M102.37,258.7c.36-.01,.6,.15,.73,.49-.36,0-.67-.05-.73-.49Z"/>
      <path class="cls-2" d="M103.81,259.66c.35,0,.6,.15,.73,.49-.37,.02-.67-.05-.73-.49Z"/>
      <path class="cls-2" d="M106.21,261.34c.35,0,.6,.15,.73,.48-.36,.02-.67-.04-.73-.48Z"/>
      <path class="cls-2" d="M20.63,201.65c.36-.01,.6,.15,.73,.48-.36,0-.67-.05-.73-.48Z"/>
      <path class="cls-2" d="M53.95,224.9c.41,0,.66,.19,.73,.6-.28-.15-.69-.15-.73-.6Z"/>
      <path class="cls-2" d="M18.95,200.45c.35,0,.6,.15,.73,.49-.36,.02-.67-.04-.73-.49Z"/>
      <path class="cls-2" d="M57.78,227.54c.35,0,.59,.16,.73,.49-.37,.03-.67-.04-.73-.49Z"/>
      <path class="cls-2" d="M58.74,228.26c.36-.01,.6,.15,.73,.48-.36,0-.67-.05-.73-.48Z"/>
      <path class="cls-2" d="M60.18,229.22c.35,0,.6,.15,.73,.49-.37,.02-.67-.04-.73-.49Z"/>
      <path class="cls-2" d="M62.58,230.89c.35,0,.6,.15,.73,.48-.36,.02-.67-.04-.73-.48Z"/>
      <path class="cls-2" d="M63.54,231.61c.36-.01,.61,.14,.73,.48-.35,0-.67-.05-.73-.48Z"/>
      <path class="cls-2" d="M64.26,232.09c.36-.01,.6,.15,.73,.48-.36,.01-.67-.05-.73-.48Z"/>
      <path class="cls-2" d="M96.14,254.39c.21,0,.39,.03,.49,.25-.21,.02-.4-.02-.49-.25Z"/>
      <path class="cls-2" d="M65.22,232.81c.21-.01,.39,.03,.49,.25-.22,.02-.4-.02-.49-.25Z"/>
      <path class="cls-2" d="M22.31,202.84c.21-.01,.39,.04,.49,.25-.22,.03-.4-.01-.49-.25Z"/>
      <path class="cls-2" d="M66.89,234.01c.26,0,.45,.07,.49,.36-.16-.12-.32-.24-.49-.36Z"/>
      <path class="cls-2" d="M52.51,223.94c.21-.01,.39,.03,.49,.25-.21,.02-.4-.02-.49-.25Z"/>
      <path class="cls-2" d="M90.62,250.55c.21,0,.39,.03,.49,.25-.22,.02-.39-.04-.49-.25Z"/>
      <path class="cls-2" d="M53.47,224.66c.21,0,.4,.01,.49,.25-.21,.01-.38-.05-.49-.25Z"/>
      <path class="cls-2" d="M93.02,252.23c.21,0,.39,.03,.49,.25-.22,.02-.39-.04-.49-.25Z"/>
      <path class="cls-2" d="M20.15,201.41c.21,0,.4,.02,.49,.25-.21,.02-.39-.04-.49-.25Z"/>
      <path class="cls-2" d="M96.86,254.87c.21-.01,.39,.04,.49,.24-.22,.04-.4,0-.49-.24Z"/>
      <path class="cls-2" d="M57.3,227.3c.21,0,.39,.03,.49,.25-.22,.02-.39-.04-.49-.25Z"/>
      <path class="cls-2" d="M98.54,256.07c.21-.01,.39,.03,.49,.25-.22,.02-.4-.02-.49-.25Z"/>
      <path class="cls-2" d="M100.21,257.26c.21,0,.4,.03,.49,.25-.21,.01-.39-.03-.49-.25Z"/>
      <path class="cls-2" d="M100.93,257.74c.21,0,.39,.03,.49,.25-.22,.02-.39-.04-.49-.25Z"/>
      <path class="cls-2" d="M101.65,258.22c.21-.01,.39,.04,.49,.25-.22,.02-.4,0-.49-.25Z"/>
      <path class="cls-2" d="M103.33,259.42c.21,0,.39,.03,.49,.25-.22,.02-.39-.04-.49-.25Z"/>
      <path class="cls-2" d="M59.7,228.97c.21,0,.39,.03,.49,.25-.22,.02-.39-.04-.49-.25Z"/>
      <path class="cls-2" d="M21.59,202.36c.21-.01,.39,.03,.49,.25-.22,.02-.4-.02-.49-.25Z"/>
      <path class="cls-2" d="M108.84,263.26c.21-.01,.39,.03,.49,.25-.22,.02-.4-.02-.49-.25Z"/>
      <path class="cls-2" d="M109.56,263.74c.21-.01,.39,.04,.49,.25-.22,.02-.4-.01-.49-.25Z"/>
      <path class="cls-2" d="M52.27,223.7c.08,.08,.17,.17,.25,.25-.08-.08-.17-.17-.25-.25Z"/>
      <path class="cls-2" d="M52.99,224.18c.08,.08,.17,.17,.25,.25-.08-.08-.17-.17-.25-.25Z"/>
      <path class="cls-2" d="M53.23,224.42c.08,.08,.17,.17,.25,.25-.08-.08-.17-.17-.25-.25Z"/>
      <path class="cls-2" d="M56.95,227.06c.12,.08,.24,.17,.36,.25-.12-.08-.24-.17-.36-.25Z"/>
      <path class="cls-2" d="M58.5,228.01c.08,.08,.17,.17,.25,.25-.14-.02-.24-.09-.25-.25Z"/>
      <path class="cls-2" d="M59.46,228.73c.08,.08,.17,.17,.25,.25-.08-.08-.17-.17-.25-.25Z"/>
      <path class="cls-2" d="M63.3,231.37c.08,.08,.17,.17,.25,.25-.08-.08-.17-.17-.25-.25Z"/>
      <path class="cls-2" d="M64.98,232.57c.08,.08,.17,.17,.25,.25-.08-.08-.17-.17-.25-.25Z"/>
      <path class="cls-2" d="M19.67,200.92c.08,.08,.17,.17,.25,.25-.08-.08-.17-.17-.25-.25Z"/>
      <path class="cls-2" d="M66.41,233.53c.08,.08,.17,.17,.25,.25-.14-.02-.24-.09-.25-.25Z"/>
      <path class="cls-2" d="M66.65,233.77c.08,.08,.17,.17,.25,.25-.08-.08-.17-.17-.25-.25Z"/>
      <path class="cls-2" d="M19.91,201.16c.08,.08,.17,.17,.25,.25-.08-.08-.17-.17-.25-.25Z"/>
      <path class="cls-2" d="M90.27,250.31c.12,.08,.24,.17,.37,.25-.12-.08-.24-.17-.37-.25Z"/>
      <path class="cls-2" d="M21.35,202.12c.08,.08,.17,.17,.25,.25-.08-.08-.17-.17-.25-.25Z"/>
      <path class="cls-2" d="M91.82,251.27c.08,.08,.17,.17,.25,.25-.14-.02-.24-.09-.25-.25Z"/>
      <path class="cls-2" d="M22.07,202.6c.08,.08,.17,.17,.25,.25-.08-.08-.17-.17-.25-.25Z"/>
      <path class="cls-2" d="M92.78,251.99c.08,.08,.17,.17,.25,.25-.08-.08-.17-.17-.25-.25Z"/>
      <path class="cls-2" d="M22.79,203.08c.08,.08,.17,.17,.25,.25-.14-.02-.24-.09-.25-.25Z"/>
      <path class="cls-2" d="M95.9,254.15c.08,.08,.17,.17,.25,.25-.08-.08-.17-.17-.25-.25Z"/>
      <path class="cls-2" d="M96.62,254.62c.08,.08,.16,.16,.25,.25-.08-.08-.16-.16-.25-.25Z"/>
      <path class="cls-2" d="M97.34,255.1c.08,.08,.16,.16,.25,.25-.14-.02-.25-.08-.25-.25Z"/>
      <path class="cls-2" d="M98.3,255.82c.08,.08,.17,.17,.25,.25-.08-.08-.17-.17-.25-.25Z"/>
      <path class="cls-2" d="M99.73,256.78c.08,.08,.17,.17,.25,.25-.14-.02-.24-.09-.25-.25Z"/>
      <path class="cls-2" d="M99.98,257.02c.08,.08,.17,.17,.25,.25-.08-.08-.17-.17-.25-.25Z"/>
      <path class="cls-2" d="M100.69,257.5c.08,.08,.17,.17,.25,.25-.08-.08-.17-.17-.25-.25Z"/>
      <path class="cls-2" d="M101.41,257.98c.08,.08,.17,.17,.25,.25-.08-.08-.17-.17-.25-.25Z"/>
      <path class="cls-2" d="M102.13,258.46c.08,.08,.17,.17,.25,.25-.14-.02-.24-.09-.25-.25Z"/>
      <path class="cls-2" d="M103.09,259.18c.08,.08,.17,.17,.25,.25-.08-.08-.17-.17-.25-.25Z"/>
      <path class="cls-2" d="M109.32,263.5c.08,.08,.17,.17,.25,.25-.08-.08-.17-.17-.25-.25Z"/>
      <path class="cls-2" d="M110.04,263.97c.08,.11,.17,.21,.25,.32-.08-.11-.17-.21-.25-.32Z"/>
      <path class="cls-5" d="M150.21,205.25c.06,.35-.11,.44-.32,.45-.63,.01-.55-.56-.7-.91-.1-.24,.03-.51,.34-.44,.51,.11,.45,.67,.68,.91Z"/>
      <path class="cls-5" d="M150.27,202.48c-.03,.23-.18,.34-.4,.34-.26,0-.48-.07-.44-.39,.03-.25,.24-.28,.44-.28,.22,0,.37,.1,.4,.34Z"/>
      <path class="cls-5" d="M185.83,93.74c-.21,0-.42-.05-.39-.3,.02-.2,.2-.33,.42-.35,.24-.02,.39,.1,.38,.33,0,.23-.18,.33-.4,.33Z"/>
      <path class="cls-5" d="M191.53,78.13c.19-.24,.4-.45,.75-.35-.03,.59-.21,.86-.75,.35Z"/>
      <path class="cls-5" d="M172.19,141.58c.25-.02,.38,.04,.38,.24,0,.17-.07,.31-.26,.33-.16,.01-.35-.02-.32-.23,.02-.13,.14-.25,.19-.33Z"/>
      <path class="cls-5" d="M149.33,207.3c-.03,.17-.13,.29-.3,.3-.17,0-.33-.1-.28-.27,.03-.13,.18-.27,.31-.31,.17-.05,.26,.11,.28,.28Z"/>
      <path class="cls-5" d="M168.28,157.47c.05,.1,.14,.2,.14,.29,0,.21-.16,.24-.31,.19-.08-.02-.12-.15-.18-.22,.08-.06,.16-.12,.35-.26Z"/>
      <path class="cls-5" d="M166.31,160.65c-.12-.07-.26-.11-.28-.19-.05-.19,.1-.27,.26-.25,.08,.01,.2,.12,.21,.19,0,.07-.11,.15-.19,.24Z"/>
      <path class="cls-5" d="M164.16,166.25c.07,.03,.17,.04,.19,.09,.02,.05-.05,.13-.08,.2-.07-.03-.17-.04-.19-.09-.02-.05,.05-.13,.08-.2Z"/>
      <path class="cls-5" d="M141.52,223.13c-.07-.03-.17-.04-.19-.09-.02-.05,.05-.13,.08-.2,.07,.03,.17,.04,.19,.09,.02,.05-.05,.13-.08,.2Z"/>
      <path class="cls-5" d="M143.76,215.37c-.07,.03-.15,.09-.2,.07-.05-.02-.06-.13-.08-.19,.07-.03,.15-.09,.2-.07,.05,.02,.06,.13,.08,.19Z"/>
      <path class="cls-5" d="M136.08,235.14c-.03,.07-.06,.13-.09,.2-.07-.03-.17-.04-.19-.09-.02-.05,.05-.13,.08-.2,.07,.03,.13,.06,.2,.09Z"/>
    </g>
  </g>
</svg>