<?xml version="1.0" encoding="UTF-8"?>
<svg id="Layer_2" data-name="Layer 2" xmlns="http://www.w3.org/2000/svg" viewBox="0 0 274.23 470.42">
  <defs>
    <style>
      .cls-1 {
        fill: #a7a9ac;
      }

      .cls-2 {
        fill: #39b54a;
      }

      .cls-3 {
        fill: #8dc63f;
      }

      .cls-4 {
        fill: #00a651;
      }

      .cls-5 {
        fill: #231f20;
      }

      .cls-6 {
        fill: #414042;
      }
    </style>
  </defs>
  <g id="Layer_1-2" data-name="Layer 1">
    <g>
      <polygon class="cls-1" points="142 58.9 8.91 96.11 8.91 53.44 142 0 142 58.9"/>
      <polygon class="cls-1" points="266.82 97.03 139.66 62.2 139.66 .68 266.82 51.83 266.82 97.03"/>
      <polygon class="cls-6" points="265.54 95.11 136.6 116.07 8.91 96.11 137.35 60.17 265.54 95.11"/>
      <polygon class="cls-3" points="149.85 470.42 2.19 369.72 2.19 316.47 149.85 393.58 149.85 470.42"/>
      <polygon class="cls-2" points="274.23 385.25 149.85 470.42 149.85 393.58 274.23 328.36 274.23 385.25"/>
      <polygon class="cls-4" points="274.23 327.31 124.93 281.71 0 316.24 147.22 393.52 274.23 327.31"/>
      <g>
        <path class="cls-5" d="M45.9,161.15v32.85l10.32-.38v-33.68l9.62-1.13v85.28l-9.62-.79v-36.29l-10.32,.05v35.39l-8.76-.72v-79.57l8.76-1.02Z"/>
        <path class="cls-5" d="M109.32,153.73v15.1l-13.93,1.18v76.52l-10.98-.9v-74.68l-12.42,1.06v-13.9l37.33-4.37Z"/>
        <path class="cls-5" d="M130.44,151.26l13.39,63.69,14.14-66.91,15.84-1.85v106.79l-15-1.23v-44.95l-10.04,44.12-9.79-.8-9.3-43.2v42.44l-12.66-1.04v-95.48l13.41-1.57Z"/>
        <path class="cls-5" d="M202.9,142.79v94.49l29.68,1.49v19.04l-32.64-2.68c-3.68-.3-6.88-2.38-9.62-6.2-2.72-3.78-4.07-8.42-4.07-13.95v-90.24l16.65-1.95Z"/>
      </g>
    </g>
  </g>
</svg>