<?xml version="1.0" encoding="UTF-8"?>
<svg id="Layer_2" data-name="Layer 2" xmlns="http://www.w3.org/2000/svg" viewBox="0 0 217.89 206.8">
  <defs>
    <style>
      .cls-1 {
        fill: #afb1b3;
      }

      .cls-2 {
        fill: #cd3d96;
      }

      .cls-3 {
        fill: #0ba24a;
      }

      .cls-4 {
        fill: #abadaf;
      }

      .cls-5 {
        fill: #fcf062;
      }
    </style>
  </defs>
  <g id="Layer_1-2" data-name="Layer 1">
    <g>
      <path class="cls-4" d="M.7,14.64c-.46-.21,.12-1.09-.7-1.07v-.48c.47-.4,.18-.94,.22-1.41,.04-.53,.19-.82,.78-.67-.01,.13-.02,.26-.03,.38-.32,.05-.46,.17-.37,.55,.21,.88,.11,1.79,.1,2.68Z"/>
      <path class="cls-3" d="M202.88,16.19c-3.54,1-7.08,1.99-10.62,2.99-.03,.59-.21,.86-.75,.34-.07,0-.15,0-.22,.02-.55,.37-1.02,.89-1.55,1.3,.53-.41,.99-.93,1.55-1.3-1.5,.04-2.83,.84-4.31,.99-4.35,1.27-8.7,2.55-13.06,3.81-2.22,.65-4.44,1.28-6.66,1.91-7.47,2.11-14.94,4.19-22.41,6.31-7.68,2.18-15.36,4.41-23.04,6.61-.5,.14-1,.27-1.5,.4-.22,4.17-.44,8.34-.67,12.51-.09,1.71-.09,3.42-.22,5.13-.29,4.13-.32,8.27-.56,12.41-.28,4.93-.52,9.85-.74,14.78-.13,3.02-.32,6.04-.47,9.06-.24,4.81-.52,9.61-.73,14.42-.14,3.18-.32,6.36-.48,9.54-.24,4.73-.53,9.45-.72,14.18-.13,3.1-.32,6.2-.47,9.3-.25,4.89-.5,9.77-.73,14.66-.21,4.65-.48,9.3-.71,13.94-.24,4.85-.46,9.7-.72,14.54-.25,4.65-.56,9.29-.7,13.95-.08,2.54-.3,5.08-.45,7.62-.02,.33,0,.66-.45,.71,0,.16-.02,.32-.03,.48h.96c-.11-.39,.18-.57,.4-.79,5.89-6.21,11.8-12.41,17.65-18.66,1.68-1.8,3.51-3.47,5-5.43l-.03-.03c.08-.08,.16-.16,.24-.24,0,0,0,0,0,0,.08-.08,.16-.16,.24-.24,0,0,0,0,0,0,.08-.08,.16-.16,.24-.24,0,0,.01,.01,.01,.01,.14-1.03,.53-1.85,1.49-2.43,.85-.51,1.56-1.22,2.24-1.95,.29-.31,.54-.72,1.07-.67,0,0-.01,0-.01,0,.08-.08,.16-.16,.25-.25,0,0,0,0,0,0,.08-.08,.16-.16,.25-.25,0,0,0,0,0,0,.09-.08,.18-.16,.27-.25,.15-.15,.3-.31,.45-.46,.19-1.6,1.5-2.17,2.65-2.88,0,0-.01-.01-.01-.01,.08-.08,.16-.16,.24-.24,0,0,.01,.01,.01,.01-.03-.35,.13-.5,.48-.49,0,0-.01,0-.01,0,.08-.08,.16-.16,.25-.25,0,0,0,0,0,0,.08-.08,.16-.16,.25-.25,0,0,0,0,0,0,.09-.08,.18-.17,.27-.25,.15-.15,.3-.31,.45-.46,0-.36-.05-.75,.5-.72,0,0,0,0,0,0,.38-1.06,1.1-1.77,2.15-2.16,0,0,0,0,0,0-.03-.35,.13-.5,.48-.49,0,0-.01,0-.01,0,.08-.08,.16-.16,.25-.25,0,0,0,0,0,0,.08-.08,.16-.16,.25-.25,0,0,0,0,0,0,.09-.08,.18-.16,.27-.25,.23-.24,.46-.47,.68-.71,0-.21,.03-.4,.25-.49,0,0,.01,.02,.01,.02,.38-1.05,1.1-1.77,2.15-2.16,0,0-.01-.01-.01-.01,.08-.08,.16-.16,.24-.24,0,0,.01,.01,.01,.01-.03-.35,.13-.5,.48-.49,0,0-.01,0-.01,0,.08-.08,.16-.16,.25-.25,0,0,0,0,0,0,.08-.08,.16-.16,.25-.25,0,0,0,0,0,0,.09-.08,.18-.17,.27-.25,.15-.15,.3-.31,.45-.46,0-.21,.02-.41,.25-.5,0,0,0,0,0,0,.08-.08,.16-.16,.24-.24,0,0,.02,.02,.02,.02,.3-.97,.95-1.6,1.91-1.92,0,0-.01-.01-.01-.01,.08-.08,.16-.16,.24-.24,0,0,.01,.01,.01,.01-.03-.35,.13-.5,.48-.49,0,0-.01,0-.01,0,.08-.08,.16-.16,.25-.25,0,0,0,0,0,0,.08-.08,.16-.16,.25-.25,0,0,0,0,0,0,.09-.08,.18-.16,.27-.25,.15-.15,.3-.31,.45-.46,0-.21,.02-.41,.25-.5,0,0,0,0,0,0,.08-.08,.16-.16,.24-.24,0,0,0,0,0,0,.08-.08,.16-.16,.24-.24,0,0,.02,.02,.02,.02,.31-.97,.95-1.6,1.91-1.92,0,0-.01-.01-.01-.01,.08-.08,.16-.16,.24-.24,0,0,.01,.01,.01,.01-.03-.35,.13-.5,.48-.49,0,0-.01,0-.01,0,.08-.08,.16-.16,.25-.25,0,0,0,0,0,0,.08-.08,.16-.16,.25-.25,0,0,0,0,0,0,.09-.08,.18-.17,.27-.25,.15-.15,.3-.31,.45-.46,0-.21,.02-.41,.25-.5,0,0,0,0,0,0,.08-.08,.16-.16,.24-.24,0,0,.02,.02,.02,.02,.3-.97,.95-1.6,1.91-1.92,0,0-.01-.01-.01-.01,.08-.08,.16-.16,.24-.24,0,0,.01,.01,.01,.01-.03-.35,.13-.5,.48-.49,0,0-.01,0-.01,0,.08-.08,.16-.16,.25-.25,0,0,0,0,0,0,.08-.08,.16-.16,.25-.25,0,0,0,0,0,0,.09-.08,.18-.16,.27-.25,.15-.15,.3-.31,.45-.46,0-.21,.02-.41,.25-.5,0,0,0,0,0,0,.08-.08,.16-.16,.24-.24,0,0,.02,.02,.02,.02,.38-1.06,1.11-1.77,2.15-2.16,0,0-.01-.01-.01-.01,.08-.08,.16-.16,.24-.24,0,0,.01,.01,.01,.01-.03-.35,.13-.5,.48-.49,0,0-.01,0-.01,0,.08-.08,.16-.16,.25-.25,0,0,0,0,0,0,.08-.08,.16-.17,.25-.25,0,0,0,0,0,0,.09-.08,.18-.17,.27-.25,.15-.15,.3-.31,.45-.46,0-.21,.02-.41,.25-.5,0,0,0,0,0,0,.08-.08,.16-.16,.24-.24,0,0,.02,.02,.02,.02,.38-1.05,1.11-1.77,2.15-2.16,0,0,0,0,0,0-.03-.35,.13-.5,.48-.49,0,0-.01,0-.01,0,.08-.08,.16-.16,.25-.25,0,0,0,0,0,0,.08-.08,.16-.17,.25-.25,0,0,0,0,0,0,.09-.08,.18-.16,.27-.25,.23-.24,.46-.47,.68-.71,0-.21,.03-.4,.25-.49,0,0,.01,.02,.01,.02,.38-1.06,1.11-1.77,2.15-2.16,0,0-.01-.01-.01-.01,.08-.08,.16-.16,.24-.24,0,0,.01,.01,.01,.01-.03-.35,.13-.5,.48-.49,0,0-.01,0-.01,0,.08-.08,.16-.16,.25-.25,0,0,0,0,0,0,.09-.08,.19-.16,.28-.24,.15-.15,.29-.31,.44-.46,0-.21,.02-.41,.25-.5,0,0,0,0,0,0,.08-.08,.16-.16,.24-.24,0,0,0,0,0,0,.08-.08,.16-.16,.24-.24,0,0,.02,.02,.02,.02,.3-.97,.95-1.6,1.91-1.92,0,0-.01-.01-.01-.01,.08-.08,.16-.16,.24-.24,0,0,.01,.01,.01,.01-.03-.35,.13-.5,.48-.49,0,0-.01,0-.01,0,.08-.08,.16-.16,.25-.25,0,0,0,0,0,0,.08-.08,.16-.17,.25-.25,0,0,0,0,0,0,.09-.08,.18-.17,.27-.25,.15-.15,.3-.31,.45-.46,0-.21,.02-.41,.25-.5,0,0,0,0,0,0,.08-.08,.16-.16,.24-.24,0,0,.02,.02,.02,.02,.38-1.05,1.11-1.77,2.15-2.16,0,0-.01-.01-.01-.01,.08-.08,.16-.16,.24-.24,0,0,.01,.01,.01,.01-.03-.35,.13-.5,.48-.49,0,0-.01,0-.01,0,.08-.08,.16-.17,.25-.25,0,0,0,0,0,0,.08-.08,.16-.16,.25-.25,.09-.08,.17-.16,.26-.24,.07-.07,.14-.15,.21-.22,0-.21,.02-.41,.25-.5,0,0,0,0,0,0,.08-.08,.16-.16,.24-.24,0,0,0,0,0,0,.08-.08,.16-.16,.24-.24,0,0,.02,.02,.02,.02-.03-.35,.13-.51,.48-.48,0,0-.01-.01-.01-.01,.08-.08,.16-.16,.24-.24,0,0,.01,.02,.01,.02,.08-.72,.48-1.12,1.2-1.2,0,0-.01-.01-.01-.01,.08-.08,.16-.16,.24-.24,0,0,.01,.01,.01,.01-.03-.35,.13-.5,.48-.49,0,0-.01,0-.01,0,.08-.08,.16-.16,.25-.25,0,0,0,0,0,0,.08-.08,.17-.17,.25-.25,0,0,0,0,0,0,.09-.08,.18-.17,.27-.25,.15-.15,.3-.31,.45-.46,0-.21,.02-.4,.25-.5,0,0,0,0,0,0,.08-.08,.16-.16,.24-.24,0,0,.02,.02,.02,.02-.03-.35,.13-.51,.48-.48,0,0-.01-.01-.01-.01,.08-.08,.16-.16,.24-.24,0,0,0,0,0,0,.08-.08,.16-.16,.24-.24,0,0,.01,.01,.01,.01-.03-.35,.13-.51,.48-.48,0,0-.01,0-.01,0,.08-.08,.16-.16,.24-.24,0,0,.01,.01,.01,.01,1.72-4.93,2.17-10.13,3.24-15.2,.89-4.18,1.64-8.4,2.42-12.61,1.02-5.53,2.07-11.06,3.12-16.59,.81-4.24,1.61-8.49,2.4-12.73,1.09-5.88,2.22-11.76,3.33-17.64,1.05-5.57,2.06-11.14,3.17-16.7,.77-3.85,1.43-7.71,2.12-11.57,.08-.43,.04-.87,.05-1.31-4.84,1.36-9.68,2.73-14.52,4.09Zm-66.91,160.54c-.07-.03-.17-.04-.19-.09-.02-.05,.05-.13,.08-.2,.07,.03,.13,.06,.2,.09-.03,.07-.06,.13-.09,.2Zm5.52-12.21c-.07-.03-.17-.04-.19-.09-.02-.05,.05-.13,.08-.2,.07,.03,.17,.04,.19,.09,.02,.05-.05,.13-.07,.2Zm2.05-7.69s-.06-.13-.08-.19c.07-.03,.15-.09,.2-.07,.05,.02,.06,.12,.08,.19-.07,.03-.15,.09-.2,.07Zm5.46-7.85c-.17,0-.33-.1-.28-.27,.03-.13,.18-.27,.31-.31,.17-.05,.26,.11,.28,.28-.03,.17-.13,.29-.3,.3Zm.86-1.9c-.63,.01-.55-.56-.7-.91-.1-.24,.03-.51,.34-.44,.51,.11,.45,.67,.68,.91,.06,.35-.11,.44-.32,.45Zm-.01-2.88c-.26,0-.48-.07-.44-.39,.03-.25,.24-.28,.44-.28,.22,0,.37,.1,.4,.34-.03,.23-.18,.34-.4,.34Zm14.4-36.28c-.07-.03-.17-.04-.19-.09-.02-.05,.05-.13,.08-.2,.07,.03,.17,.04,.19,.09,.02,.05-.05,.13-.08,.2Zm2.04-5.89c-.12-.07-.26-.11-.28-.19-.05-.19,.1-.27,.26-.25,.08,.01,.2,.12,.21,.19,0,.07-.11,.15-.19,.24Zm1.8-2.7c-.08-.02-.12-.15-.18-.22,.08-.06,.16-.12,.35-.26,.05,.1,.14,.2,.14,.29,0,.21-.16,.24-.31,.19Zm4.2-15.81c-.16,.01-.35-.02-.32-.23,.02-.13,.14-.25,.19-.33,.25-.02,.38,.04,.38,.24,0,.17-.07,.31-.26,.33Zm13.51-48.4c-.21,0-.42-.05-.39-.3,.02-.2,.2-.33,.42-.35,.24-.02,.39,.1,.38,.33,0,.23-.18,.33-.4,.33Z"/>
      <path class="cls-4" d="M217.4,12.09c0-.07,0-.14,.02-.2,.63,.08,.47,.5,.39,.9-.97,5.17-1.93,10.34-2.9,15.5-2.21,11.78-4.43,23.57-6.65,35.35-1.53,8.1-3.07,16.2-4.6,24.3-1.67,8.85-3.32,17.69-5,26.54-.14,.75-.2,1.63-1.12,1.97,1.72-4.93,2.17-10.13,3.24-15.2,.89-4.18,1.64-8.4,2.42-12.61,1.02-5.53,2.07-11.06,3.12-16.59,.81-4.24,1.61-8.49,2.4-12.73,1.09-5.88,2.22-11.76,3.33-17.64,1.05-5.57,2.06-11.14,3.17-16.7,.77-3.85,1.43-7.71,2.13-11.57,.08-.43,.04-.87,.05-1.31Z"/>
      <path class="cls-4" d="M136.19,181.18c.14-1.03,.53-1.85,1.49-2.43,.85-.51,1.56-1.22,2.24-1.95,.29-.31,.54-.72,1.07-.67-1.42,1.85-3.11,3.44-4.79,5.04Z"/>
      <path class="cls-4" d="M142.16,174.95c.19-1.6,1.5-2.17,2.65-2.88-.68,1.15-1.74,1.94-2.65,2.88Z"/>
      <path class="cls-4" d="M187.01,127.48c.38-1.05,1.11-1.77,2.15-2.16-.54,.9-1.23,1.64-2.15,2.16Z"/>
      <path class="cls-4" d="M169.27,146.18c.38-1.06,1.11-1.77,2.15-2.16-.54,.9-1.22,1.65-2.15,2.16Z"/>
      <path class="cls-4" d="M178.14,136.83c.38-1.06,1.11-1.77,2.15-2.16-.54,.9-1.22,1.65-2.15,2.16Z"/>
      <path class="cls-4" d="M173.83,141.38c.38-1.05,1.11-1.77,2.15-2.16-.54,.9-1.23,1.64-2.15,2.16Z"/>
      <path class="cls-4" d="M151.53,164.88c.38-1.05,1.1-1.77,2.15-2.16-.54,.9-1.22,1.65-2.15,2.16Z"/>
      <path class="cls-4" d="M147.22,169.43c.38-1.06,1.1-1.77,2.15-2.16-.54,.89-1.23,1.64-2.15,2.16Z"/>
      <path class="cls-4" d="M182.7,132.03c.3-.97,.95-1.6,1.91-1.92-.46,.81-1.06,1.49-1.91,1.92Z"/>
      <path class="cls-4" d="M156.09,160.08c.3-.97,.95-1.6,1.91-1.92-.46,.82-1.07,1.49-1.91,1.92Z"/>
      <path class="cls-4" d="M164.96,150.73c.3-.97,.95-1.6,1.91-1.92-.46,.82-1.07,1.49-1.91,1.92Z"/>
      <path class="cls-4" d="M160.64,155.29c.31-.97,.95-1.6,1.91-1.92-.46,.81-1.07,1.49-1.91,1.92Z"/>
      <path class="cls-4" d="M192.28,121.96c.08-.72,.48-1.12,1.2-1.2-.23,.57-.61,.99-1.2,1.2Z"/>
      <path class="cls-4" d="M146.72,170.15c0-.36-.05-.75,.5-.72-.02,.34-.24,.54-.5,.72Z"/>
      <path class="cls-4" d="M180.53,134.43c-.03-.35,.13-.5,.48-.49-.04,.28-.18,.46-.48,.49Z"/>
      <path class="cls-4" d="M196.83,117.17c-.03-.35,.13-.51,.48-.48-.04,.28-.19,.45-.48,.48Z"/>
      <path class="cls-4" d="M195.88,118.13c-.03-.35,.13-.51,.48-.48-.03,.29-.18,.46-.48,.48Z"/>
      <path class="cls-4" d="M171.66,143.78c-.03-.35,.13-.5,.48-.49-.04,.27-.18,.46-.48,.49Z"/>
      <path class="cls-4" d="M162.79,153.13c-.03-.35,.13-.5,.48-.49-.04,.27-.18,.46-.48,.49Z"/>
      <path class="cls-4" d="M193.72,120.52c-.03-.35,.13-.5,.48-.49-.05,.27-.18,.46-.48,.49Z"/>
      <path class="cls-4" d="M189.4,125.08c-.03-.35,.13-.5,.48-.49-.04,.28-.18,.46-.48,.49Z"/>
      <path class="cls-4" d="M167.11,148.57c-.03-.35,.13-.5,.48-.49-.05,.27-.18,.46-.48,.49Z"/>
      <path class="cls-4" d="M149.37,167.27c-.03-.35,.13-.5,.48-.49-.04,.28-.18,.45-.48,.49Z"/>
      <path class="cls-4" d="M145.06,171.83c-.03-.35,.13-.5,.48-.49-.04,.28-.18,.45-.48,.49Z"/>
      <path class="cls-4" d="M158.24,157.92c-.03-.35,.13-.5,.48-.49-.04,.27-.18,.46-.48,.49Z"/>
      <path class="cls-4" d="M191.56,122.68c-.03-.35,.13-.51,.48-.48-.02,.29-.18,.46-.48,.48Z"/>
      <path class="cls-4" d="M175.98,139.22c-.03-.35,.13-.5,.48-.49-.04,.27-.18,.46-.48,.49Z"/>
      <path class="cls-4" d="M184.85,129.87c-.03-.35,.13-.5,.48-.49-.04,.28-.18,.46-.48,.49Z"/>
      <path class="cls-4" d="M153.92,162.48c-.03-.35,.13-.5,.48-.49-.04,.27-.18,.45-.48,.49Z"/>
      <path class="cls-4" d="M195.38,118.85c0-.21,.02-.4,.25-.5,.03,.22-.07,.38-.25,.5Z"/>
      <path class="cls-4" d="M155.59,160.8c0-.21,.02-.41,.25-.5,.03,.22-.07,.38-.25,.5Z"/>
      <path class="cls-4" d="M177.88,137.3c0-.21,.03-.4,.25-.49,.03,.22-.08,.37-.25,.49Z"/>
      <path class="cls-4" d="M190.82,123.64c0-.21,.02-.41,.25-.5,.05,.23-.07,.38-.25,.5Z"/>
      <path class="cls-4" d="M173.32,142.1c0-.21,.02-.41,.25-.5,.03,.22-.07,.38-.25,.5Z"/>
      <path class="cls-4" d="M151.27,165.35c0-.21,.03-.4,.25-.49,.03,.22-.08,.37-.25,.49Z"/>
      <path class="cls-4" d="M186.51,128.2c0-.21,.02-.41,.25-.5,.03,.22-.07,.38-.25,.5Z"/>
      <path class="cls-4" d="M168.77,146.9c0-.21,.02-.41,.25-.5,.05,.23-.07,.38-.25,.5Z"/>
      <path class="cls-4" d="M181.95,132.99c0-.21,.02-.41,.25-.5,.05,.23-.07,.38-.25,.5Z"/>
      <path class="cls-4" d="M164.45,151.45c0-.21,.02-.41,.25-.5,.03,.22-.07,.38-.25,.5Z"/>
      <path class="cls-4" d="M1.92,10.95c-.15,.19-.32,.23-.49,.03,.16-.01,.33-.02,.49-.03Z"/>
      <path class="cls-4" d="M159.9,156.25c0-.21,.02-.41,.25-.5,.05,.23-.07,.38-.25,.5Z"/>
      <path class="cls-4" d="M158.7,157.43c.08-.08,.16-.16,.25-.25-.08,.08-.16,.16-.25,.25Z"/>
      <path class="cls-4" d="M196.34,117.64c.08-.08,.16-.16,.24-.24-.01,.15-.09,.23-.24,.24Z"/>
      <path class="cls-4" d="M157.99,158.15c.08-.08,.16-.16,.24-.24-.08,.08-.16,.16-.24,.24Z"/>
      <path class="cls-4" d="M194.66,119.55c.09-.08,.18-.17,.27-.25-.09,.08-.18,.17-.27,.25Z"/>
      <path class="cls-4" d="M155.83,160.31c.08-.08,.16-.16,.24-.24,0,.16-.08,.24-.24,.24Z"/>
      <path class="cls-4" d="M194.42,119.8c.08-.08,.17-.17,.25-.25-.08,.08-.17,.17-.25,.25Z"/>
      <path class="cls-4" d="M154.87,161.51c.09-.08,.18-.17,.27-.25-.09,.08-.18,.17-.27,.25Z"/>
      <path class="cls-4" d="M154.63,161.75c.08-.08,.16-.16,.25-.25-.08,.08-.16,.16-.25,.25Z"/>
      <path class="cls-4" d="M154.39,161.99c.08-.08,.16-.16,.25-.25-.08,.08-.16,.16-.25,.25Z"/>
      <path class="cls-4" d="M194.18,120.03c.08-.08,.16-.17,.25-.25-.08,.08-.16,.17-.25,.25Z"/>
      <path class="cls-4" d="M153.67,162.71c.08-.08,.16-.16,.24-.24-.08,.08-.16,.16-.24,.24Z"/>
      <path class="cls-4" d="M193.46,120.75c.08-.08,.16-.16,.24-.24-.08,.08-.16,.16-.24,.24Z"/>
      <path class="cls-4" d="M192.02,122.19c.08-.08,.16-.16,.24-.24-.01,.15-.09,.23-.24,.24Z"/>
      <path class="cls-4" d="M191.31,122.91c.08-.08,.16-.16,.24-.24,0,.16-.09,.24-.24,.24Z"/>
      <path class="cls-4" d="M191.07,123.15c.08-.08,.16-.16,.24-.24,0,.15-.08,.24-.24,.24Z"/>
      <path class="cls-4" d="M190.34,124.11c.09-.08,.18-.17,.27-.25-.09,.08-.18,.17-.27,.25Z"/>
      <path class="cls-4" d="M190.1,124.35c.08-.08,.17-.17,.25-.25-.08,.08-.17,.17-.25,.25Z"/>
      <path class="cls-4" d="M150.31,166.3c.09-.08,.18-.16,.27-.25-.09,.08-.18,.16-.27,.25Z"/>
      <path class="cls-4" d="M189.86,124.59c.08-.08,.16-.17,.25-.25-.08,.08-.16,.17-.25,.25Z"/>
      <path class="cls-4" d="M150.07,166.54c.08-.08,.16-.16,.25-.25-.08,.08-.16,.16-.25,.25Z"/>
      <path class="cls-4" d="M149.83,166.78c.08-.08,.16-.16,.25-.25-.08,.08-.16,.16-.25,.25Z"/>
      <path class="cls-4" d="M189.15,125.31c.08-.08,.16-.16,.24-.24-.08,.08-.16,.16-.24,.24Z"/>
      <path class="cls-4" d="M186.75,127.7c.08-.08,.16-.16,.24-.24,0,.16-.09,.24-.24,.24Z"/>
      <path class="cls-4" d="M185.79,128.9c.09-.08,.18-.17,.27-.25-.09,.08-.18,.17-.27,.25Z"/>
      <path class="cls-4" d="M185.55,129.14c.08-.08,.16-.17,.25-.25-.08,.08-.16,.17-.25,.25Z"/>
      <path class="cls-4" d="M185.31,129.38c.08-.08,.16-.16,.25-.25-.08,.08-.16,.16-.25,.25Z"/>
      <path class="cls-4" d="M184.59,130.1c.08-.08,.16-.16,.24-.24-.08,.08-.16,.16-.24,.24Z"/>
      <path class="cls-4" d="M182.44,132.26c.08-.08,.16-.16,.24-.24,0,.16-.09,.24-.24,.24Z"/>
      <path class="cls-4" d="M182.2,132.5c.08-.08,.16-.16,.24-.24,0,.16-.08,.25-.24,.24Z"/>
      <path class="cls-4" d="M146,170.86c.09-.08,.18-.17,.27-.25-.09,.08-.18,.17-.27,.25Z"/>
      <path class="cls-4" d="M145.76,171.1c.08-.08,.16-.16,.25-.25-.08,.08-.16,.16-.25,.25Z"/>
      <path class="cls-4" d="M181.23,133.7c.09-.08,.19-.16,.28-.24-.09,.08-.19,.16-.28,.24Z"/>
      <path class="cls-4" d="M145.52,171.34c.08-.08,.16-.16,.25-.25-.08,.08-.16,.16-.25,.25Z"/>
      <path class="cls-4" d="M181,133.94c.08-.08,.16-.16,.25-.25-.08,.08-.16,.16-.25,.25Z"/>
      <path class="cls-4" d="M144.8,172.05c.08-.08,.16-.16,.24-.24-.08,.08-.16,.16-.24,.24Z"/>
      <path class="cls-4" d="M180.28,134.66c.08-.08,.16-.16,.24-.24-.08,.08-.16,.16-.24,.24Z"/>
      <path class="cls-4" d="M176.92,138.25c.09-.08,.18-.16,.27-.25-.09,.08-.18,.16-.27,.25Z"/>
      <path class="cls-4" d="M176.68,138.49c.08-.08,.16-.17,.25-.25-.08,.08-.16,.17-.25,.25Z"/>
      <path class="cls-4" d="M176.44,138.73c.08-.08,.16-.16,.25-.25-.08,.08-.16,.16-.25,.25Z"/>
      <path class="cls-4" d="M173.57,141.61c.08-.08,.16-.16,.24-.24,0,.16-.08,.24-.24,.24Z"/>
      <path class="cls-4" d="M141.44,175.65c.09-.08,.18-.16,.27-.25-.09,.08-.18,.16-.27,.25Z"/>
      <path class="cls-4" d="M141.2,175.89c.08-.08,.16-.16,.25-.25-.08,.08-.16,.16-.25,.25Z"/>
      <path class="cls-4" d="M140.96,176.13c.08-.08,.16-.16,.25-.25-.08,.08-.16,.16-.25,.25Z"/>
      <path class="cls-4" d="M172.6,142.81c.09-.08,.18-.17,.27-.25-.09,.08-.18,.17-.27,.25Z"/>
      <path class="cls-4" d="M172.37,143.05c.08-.08,.16-.17,.25-.25-.08,.08-.16,.17-.25,.25Z"/>
      <path class="cls-4" d="M135.93,181.4c.08-.08,.16-.16,.24-.24-.08,.08-.16,.16-.24,.24Z"/>
      <path class="cls-4" d="M135.69,181.64c.08-.08,.16-.16,.24-.24-.08,.08-.16,.16-.24,.24Z"/>
      <path class="cls-4" d="M135.45,181.88c.08-.08,.16-.16,.24-.24-.08,.08-.16,.16-.24,.24Z"/>
      <path class="cls-4" d="M172.13,143.29c.08-.08,.16-.16,.25-.25-.08,.08-.16,.16-.25,.25Z"/>
      <path class="cls-4" d="M171.41,144.01c.08-.08,.16-.16,.24-.24-.08,.08-.16,.16-.24,.24Z"/>
      <path class="cls-4" d="M169.01,146.4c.08-.08,.16-.16,.24-.24,0,.16-.08,.25-.24,.24Z"/>
      <path class="cls-4" d="M168.05,147.6c.09-.08,.18-.16,.27-.25-.09,.08-.18,.16-.27,.25Z"/>
      <path class="cls-4" d="M162.54,153.36c.08-.08,.16-.16,.24-.24-.08,.08-.16,.16-.24,.24Z"/>
      <path class="cls-4" d="M167.81,147.84c.08-.08,.16-.16,.25-.25-.08,.08-.16,.16-.25,.25Z"/>
      <path class="cls-4" d="M167.57,148.08c.08-.08,.16-.16,.25-.25-.08,.08-.16,.16-.25,.25Z"/>
      <path class="cls-4" d="M166.85,148.8c.08-.08,.16-.16,.24-.24-.08,.08-.16,.16-.24,.24Z"/>
      <path class="cls-4" d="M164.7,150.96c.08-.08,.16-.16,.24-.24,0,.16-.08,.24-.24,.24Z"/>
      <path class="cls-4" d="M163.73,152.16c.09-.08,.18-.17,.27-.25-.09,.08-.18,.17-.27,.25Z"/>
      <path class="cls-4" d="M163.5,152.4c.08-.08,.16-.16,.25-.25-.08,.08-.16,.16-.25,.25Z"/>
      <path class="cls-4" d="M163.26,152.64c.08-.08,.16-.16,.25-.25-.08,.08-.16,.16-.25,.25Z"/>
      <path class="cls-4" d="M195.62,118.36c.08-.08,.16-.16,.24-.24,0,.16-.09,.24-.24,.24Z"/>
      <path class="cls-4" d="M216.96,11.72c-.11,.1-.19,.07-.27-.04,.09,.01,.18,.03,.27,.04Z"/>
      <path class="cls-4" d="M160.38,155.51c.08-.08,.16-.16,.24-.24,0,.15-.08,.24-.24,.24Z"/>
      <path class="cls-4" d="M160.14,155.75c.08-.08,.16-.16,.24-.24,0,.16-.08,.25-.24,.24Z"/>
      <path class="cls-4" d="M197.3,116.68c.08-.08,.16-.16,.24-.24-.08,.08-.16,.16-.24,.24Z"/>
      <path class="cls-4" d="M196.58,117.4c.08-.08,.16-.16,.24-.24-.01,.15-.09,.23-.24,.24Z"/>
      <path class="cls-4" d="M159.18,156.95c.09-.08,.18-.16,.27-.25-.09,.08-.18,.16-.27,.25Z"/>
      <path class="cls-4" d="M158.94,157.19c.08-.08,.16-.16,.25-.25-.08,.08-.16,.16-.25,.25Z"/>
      <path class="cls-5" d="M.97,11.4c3.04,.69,6.08,1.38,9.12,2.07,.23,.05,.47,.05,.7,.08,1.77,.44,3.54,.91,5.32,1.33,13.67,3.25,27.34,6.5,41.02,9.74,7.15,1.7,14.31,3.37,21.47,5.06,4.89,1.15,9.78,2.3,14.67,3.46,9.02,2.14,18.04,4.29,27.06,6.44-.22,4.17-.44,8.34-.67,12.51-.09,1.71-.09,3.42-.22,5.13-.29,4.13-.32,8.27-.56,12.41-.28,4.93-.52,9.85-.74,14.78-.13,3.02-.32,6.04-.47,9.06-.24,4.81-.52,9.61-.73,14.42-.14,3.18-.32,6.36-.48,9.54-.24,4.73-.53,9.45-.72,14.18-.13,3.1-.32,6.2-.47,9.3-.25,4.89-.5,9.77-.73,14.66-.21,4.65-.48,9.3-.71,13.94-.24,4.85-.46,9.7-.72,14.54-.25,4.65-.56,9.29-.7,13.95-.08,2.54-.3,5.08-.45,7.62-.02,.33,0,.66-.45,.71-.58,.11-.83-.4-1.23-.64-.08-.11-.17-.21-.25-.32,0,0,.01,0,0,0-.1-.21-.28-.26-.49-.25,0,0,0,0,0,0-.08-.08-.17-.17-.25-.25,0,0,0,0,0,0-.1-.22-.28-.26-.49-.25,0,0,0,0,0,0-.37-.84-1.17-1.12-1.92-1.45,0,0,0,0,0,0-.13-.33-.37-.49-.73-.48,0,0,0,0,0,0-.39-.64-.99-.99-1.69-1.2,0,0,0,0,0,0-.13-.33-.38-.49-.73-.49,0,0,.01,0,.01,0-.1-.22-.28-.26-.49-.25,0,0,.01,0,.01,0-.08-.08-.17-.17-.25-.25,0,0,0,0,0,0-.13-.33-.37-.5-.73-.49,0,0,0,0,0,0-.08-.08-.17-.17-.25-.25,0,0,.01,0,.01,0-.1-.21-.28-.26-.49-.25,0,0,0,0,0,0-.08-.08-.17-.17-.25-.25,0,0,0,0,0,0-.1-.22-.28-.26-.49-.25,0,0,.01,0,.01,0-.08-.08-.17-.17-.25-.25,0,0,.01,0,.01,0-.09-.22-.28-.26-.49-.25,0,0,0,0,0,0-.08-.08-.17-.17-.25-.25,0,0,0,0,0,0-.08-.08-.17-.17-.25-.25,0,0,0,0,0,0-.13-.32-.38-.49-.73-.49,0,0,.01,0,0,0-.1-.21-.28-.26-.49-.25,0,0,0,0,0,0-.08-.08-.17-.17-.25-.25,0,0,0,0,0,0-.13-.33-.37-.5-.73-.48,0,0,0,0,0,0-.08-.08-.16-.16-.25-.25,0,0,0,0,0,0-.1-.21-.28-.26-.49-.24,0,0,0,0,0,0-.08-.08-.17-.16-.25-.25,0,0,0,0,0,0-.1-.22-.28-.26-.49-.25,0,0,.01,0,0,0-.08-.08-.17-.17-.25-.25,0,0,0,0,0,0-.39-.64-.99-.99-1.69-1.2,0,0,0,0,0,0-.13-.33-.38-.49-.73-.49,0,0,.01,0,.01,0-.1-.22-.28-.26-.49-.25,0,0,.01,0,.01,0-.08-.08-.17-.17-.25-.25,0,0,0,0,0,0-.13-.33-.37-.5-.73-.49,0,0,0,0,0,0-.08-.08-.17-.17-.25-.25,0,0,0,0,0,0-.13-.33-.38-.49-.73-.49,0,0,.01,0,.01,0-.1-.22-.28-.26-.49-.25,0,0,.01,0,.01,0-.12-.08-.24-.17-.37-.25-1.48-.6-2.65-1.68-3.95-2.56-3.93-2.68-7.86-5.37-11.72-8.15-2.41-1.74-4.98-3.26-7.22-5.23-.04-.29-.23-.37-.49-.36,0,0,0,0,0,0-.08-.08-.17-.17-.25-.25,0,0,0,0,0,0-.08-.08-.17-.17-.25-.25,0,0,0,0,0,0-.13-.32-.38-.49-.73-.49,0,0,.01,0,.01,0-.1-.21-.28-.26-.49-.25,0,0,0,0,0,0-.08-.08-.17-.17-.25-.25,0,0,0,0,0,0-.13-.33-.37-.5-.73-.48,0,0,0,0,0,0-.12-.34-.37-.5-.73-.48,0,0,0,0,0,0-.08-.08-.17-.17-.25-.25,0,0,0,0,0,0-.13-.33-.37-.49-.73-.48,0,0,0,0,0,0-.4-.64-.99-.99-1.69-1.2,0,0,0,0,0,0-.13-.33-.38-.49-.73-.49,0,0,.01,0,.01,0-.1-.22-.28-.26-.49-.25,0,0,.01,0,.01,0-.08-.08-.17-.17-.25-.25,0,0,0,0,0,0-.13-.33-.37-.5-.73-.48,0,0,0,0,0,0-.08-.08-.17-.17-.25-.25,0,0,0,0,0,0-.13-.32-.38-.49-.73-.49,0,0,.01,0,.01,0-.1-.22-.28-.26-.49-.25,0,0,.01,0,.01,0-.12-.08-.24-.17-.36-.25-.97-.2-1.6-.92-2.28-1.55-.07-.41-.32-.6-.73-.6,0,0,0,0,0,0-.09-.23-.28-.25-.49-.25,0,0,.01,0,.01,0-.08-.08-.17-.17-.25-.25,0,0,0,0,0,0-.08-.08-.17-.17-.25-.25,0,0,.01,0,.01,0-.1-.21-.28-.26-.49-.25,0,0,.01,0,.01,0-.08-.08-.17-.17-.25-.25,0,0,0,0,0,0-.33-.59-.84-.9-1.5-.97-2.89-1.65-5.52-3.67-8.25-5.56-3.82-2.64-7.68-5.24-11.45-7.95-2.45-1.76-5.05-3.31-7.33-5.31-.07-.41-.32-.6-.73-.6,0,0,0,0,0,0-.08-.08-.17-.17-.25-.25,0,0,.01,0,.01,0-.1-.21-.28-.26-.49-.25,0,0,0,0,0,0-.08-.08-.17-.17-.25-.25,0,0,0,0,0,0-.1-.21-.28-.26-.49-.25,0,0,0,0,0,0-.08-.08-.17-.17-.25-.25,0,0,0,0,0,0-.13-.33-.37-.5-.73-.48,0,0,0,0,0,0-.09-.23-.28-.25-.49-.25,0,0,0,0,0,0-.08-.08-.17-.17-.25-.25,0,0,0,0,0,0-.08-.08-.17-.17-.25-.25,0,0,0,0,0,0-.13-.33-.38-.49-.73-.49,0,0,0,0,0,0-.78-.78-1.51-1.63-2.65-1.93,0,0,.01,.01,.01,.01,.12-1.76-.37-3.47-.54-5.21-.38-3.87-.88-7.72-1.4-11.57-.21-1.52-.22-3.07-.68-4.55-.66-2.2-.96-4.44-.73-6.73-.26-2.09-.52-4.17-.77-6.26-.46-3.74-.9-7.48-1.4-11.22-.21-1.6-.26-3.23-.69-4.8-.51-.71-.16-1.68-.4-2.24-.42-.96-.06-1.73-.09-2.58-.08-.59-.17-1.18-.24-1.77-.42-3.54-.92-7.07-1.27-10.63-.35-3.51-.92-6.99-1.35-10.5-.51-4.09-.99-8.19-1.49-12.28-.47-3.86-.9-7.72-1.43-11.56-.21-1.52-.22-3.07-.68-4.55-.83-.9-.31-1.92-.25-2.9-.41-3.34-.76-6.7-1.28-10.02-.2-1.31,.04-2.72-.66-3.95,0,0,.02-.06,.02-.07-.06-.62,.21-1.29-.26-1.85,0,0,0-.07,0-.06,.01-.9,.12-1.8-.1-2.68-.09-.39,.04-.5,.37-.55Z"/>
      <path class="cls-2" d="M216.96,11.72c-.11,.1-.19,.07-.27-.04-1.24-.12-2.47-.41-3.69-.43-1.51-.03-2.98-.38-4.46-.51-1.85-.17-3.74-.46-5.61-.78-1.9-.33-3.83-.46-5.75-.71-2.2-.29-4.39-.73-6.61-.91-2.1-.17-4.23-.4-6.28-.72-2.97-.46-5.96-.78-8.93-1.22-4.53-.68-9.08-1.2-13.62-1.79-5.33-.69-10.66-1.38-15.99-2.07-4.62-.6-9.26-1.07-13.86-1.84-5.36-.89-10.68-.87-16.05-.24-4.71,.55-9.44,.93-14.16,1.36-3.95,.36-7.9,.7-11.85,1.03-2.46,.21-4.89,.63-7.36,.72-2.78,.1-5.56,.48-8.33,.74-4.84,.45-9.68,.91-14.52,1.35-3.85,.35-7.7,.69-11.55,1.04-4.01,.37-8.01,.75-12.02,1.12-3.81,.35-7.62,.69-11.43,1.04-3.88,.36-7.75,.75-11.63,1.1-3.69,.34-7.38,.66-11.08,.99-.15,.19-.32,.23-.49,.03-.14,.01-.28,.03-.43,.04-.01,.13-.02,.26-.03,.38,3.04,.69,6.08,1.38,9.12,2.07,.23,.05,.47,.05,.7,.08h0c1.77,.44,3.54,.91,5.32,1.33,13.67,3.25,27.34,6.5,41.02,9.74,7.15,1.7,14.31,3.37,21.47,5.06,4.89,1.15,9.78,2.3,14.67,3.46,9.02,2.14,18.04,4.29,27.06,6.44,.5-.13,1-.25,1.5-.4,7.68-2.2,15.35-4.43,23.04-6.61,7.46-2.12,14.94-4.2,22.41-6.31,2.22-.63,4.45-1.27,6.66-1.91,4.35-1.27,8.71-2.54,13.06-3.81,1.48-.15,2.81-.95,4.31-.99,.07-.01,.15-.02,.22-.02,.19-.24,.4-.45,.75-.35,3.54-.99,7.08-1.99,10.62-2.99,4.84-1.36,9.68-2.73,14.52-4.09,0-.07,0-.14,.02-.2-.16-.06-.31-.12-.46-.18Z"/>
      <path class="cls-1" d="M3.13,33.49c.46,1.48,.47,3.03,.68,4.55,.53,3.85,.96,7.71,1.43,11.56,.5,4.09,.98,8.19,1.49,12.28,.44,3.5,1.01,6.99,1.35,10.5,.35,3.55,.85,7.08,1.27,10.63,.07,.59,.16,1.18,.24,1.77-.84-.53-.55-1.46-.64-2.18-.65-4.92-1.18-9.86-1.78-14.78-.59-4.84-1.25-9.68-1.85-14.52-.6-4.81-1.15-9.63-1.74-14.45-.18-1.5-.39-2.99-.6-4.48-.04-.31-.18-.63,.15-.87Z"/>
      <path class="cls-1" d="M10.08,89.59c.44,1.57,.48,3.2,.69,4.8,.49,3.74,.94,7.48,1.4,11.22,.26,2.09,.52,4.17,.77,6.26-.94-.79-.53-1.93-.68-2.89-.63-4.11-1.09-8.25-1.61-12.38-.27-2.16-.53-4.32-.79-6.49-.03-.21,.02-.39,.21-.52Z"/>
      <path class="cls-1" d="M13.67,118.59c.45,1.48,.47,3.04,.68,4.55,.53,3.85,1.02,7.7,1.4,11.57,.17,1.74,.66,3.44,.54,5.21-.69-1.18-.5-2.54-.69-3.81-.61-4.16-1.1-8.34-1.62-12.51-.19-1.53-.36-3.07-.52-4.61-.01-.12,.13-.26,.2-.4Z"/>
      <path class="cls-1" d="M.94,16.62c.7,1.23,.46,2.63,.66,3.95,.51,3.33,.86,6.68,1.28,10.02-.94-.78-.51-1.93-.68-2.88-.48-2.77-.7-5.57-1.1-8.36-.13-.91-.14-1.82-.17-2.73Z"/>
      <path class="cls-1" d="M16.29,139.92c1.14,.29,1.87,1.15,2.65,1.93-1.07-.38-2.11-.81-2.65-1.93Z"/>
      <path class="cls-1" d="M106.9,203.21c.76,.33,1.55,.6,1.92,1.45-.76-.32-1.57-.58-1.92-1.45Z"/>
      <path class="cls-1" d="M60.88,171.08c.7,.21,1.29,.57,1.69,1.2-.75-.14-1.42-.39-1.69-1.2Z"/>
      <path class="cls-1" d="M104.5,201.53c.7,.21,1.29,.57,1.69,1.2-.74-.15-1.42-.38-1.69-1.2Z"/>
      <path class="cls-1" d="M94.2,194.34c.7,.21,1.29,.57,1.69,1.2-.75-.14-1.42-.39-1.69-1.2Z"/>
      <path class="cls-1" d="M50.76,164.13c.66,.07,1.17,.37,1.5,.97-.68-.04-1.16-.4-1.5-.97Z"/>
      <path class="cls-4" d="M.7,14.7c.46,.56,.2,1.23,.26,1.85-.44-.57-.18-1.23-.26-1.85Z"/>
      <path class="cls-1" d="M65.67,174.44c.35,0,.59,.16,.73,.49-.37,.03-.67-.05-.73-.49Z"/>
      <path class="cls-1" d="M97.55,196.74c.36-.01,.6,.15,.73,.48-.36,.01-.67-.05-.73-.48Z"/>
      <path class="cls-1" d="M92.04,192.9c.36-.01,.6,.15,.73,.49-.36,0-.67-.05-.73-.49Z"/>
      <path class="cls-1" d="M23,144.71c.41,0,.66,.19,.73,.6-.28-.15-.69-.15-.73-.6Z"/>
      <path class="cls-1" d="M93.48,193.86c.35,0,.6,.15,.73,.49-.36,.02-.67-.04-.73-.49Z"/>
      <path class="cls-1" d="M91.08,192.18c.35,0,.6,.16,.73,.49-.37,.03-.67-.05-.73-.49Z"/>
      <path class="cls-1" d="M98.99,197.7c.35,0,.59,.16,.73,.49-.37,.03-.67-.04-.73-.49Z"/>
      <path class="cls-1" d="M102.35,200.09c.36-.01,.6,.15,.73,.49-.36,0-.67-.05-.73-.49Z"/>
      <path class="cls-1" d="M103.78,201.05c.35,0,.6,.15,.73,.49-.37,.02-.67-.05-.73-.49Z"/>
      <path class="cls-1" d="M106.18,202.73c.35,0,.6,.15,.73,.48-.36,.02-.67-.04-.73-.48Z"/>
      <path class="cls-1" d="M20.61,143.04c.36-.01,.6,.15,.73,.48-.36,0-.67-.05-.73-.48Z"/>
      <path class="cls-1" d="M53.93,166.29c.41,0,.66,.19,.73,.6-.28-.15-.69-.15-.73-.6Z"/>
      <path class="cls-1" d="M18.93,141.84c.35,0,.6,.15,.73,.49-.36,.02-.67-.04-.73-.49Z"/>
      <path class="cls-1" d="M57.76,168.93c.35,0,.59,.16,.73,.49-.37,.03-.67-.04-.73-.49Z"/>
      <path class="cls-1" d="M58.72,169.65c.36-.01,.6,.15,.73,.48-.36,0-.67-.05-.73-.48Z"/>
      <path class="cls-1" d="M60.16,170.6c.35,0,.6,.15,.73,.49-.37,.02-.67-.04-.73-.49Z"/>
      <path class="cls-1" d="M62.55,172.28c.35,0,.6,.15,.73,.48-.36,.02-.67-.04-.73-.48Z"/>
      <path class="cls-1" d="M63.51,173c.36-.01,.61,.14,.73,.48-.35,0-.67-.05-.73-.48Z"/>
      <path class="cls-1" d="M64.23,173.48c.36-.01,.6,.15,.73,.48-.36,.01-.67-.05-.73-.48Z"/>
      <path class="cls-1" d="M96.11,195.78c.21,0,.39,.03,.49,.25-.21,.02-.4-.02-.49-.25Z"/>
      <path class="cls-1" d="M65.19,174.2c.21-.01,.39,.03,.49,.25-.22,.02-.4-.02-.49-.25Z"/>
      <path class="cls-1" d="M22.28,144.23c.21-.01,.39,.04,.49,.25-.22,.03-.4-.01-.49-.25Z"/>
      <path class="cls-1" d="M66.87,175.4c.26,0,.45,.07,.49,.36-.16-.12-.32-.24-.49-.36Z"/>
      <path class="cls-1" d="M52.49,165.33c.21-.01,.39,.03,.49,.25-.21,.02-.4-.02-.49-.25Z"/>
      <path class="cls-1" d="M90.6,191.94c.21,0,.39,.03,.49,.25-.22,.02-.39-.04-.49-.25Z"/>
      <path class="cls-1" d="M53.44,166.05c.21,0,.4,.01,.49,.25-.21,.01-.38-.05-.49-.25Z"/>
      <path class="cls-1" d="M93,193.62c.21,0,.39,.03,.49,.25-.22,.02-.39-.04-.49-.25Z"/>
      <path class="cls-1" d="M20.13,142.79c.21,0,.4,.02,.49,.25-.21,.02-.39-.04-.49-.25Z"/>
      <path class="cls-1" d="M96.83,196.26c.21-.01,.39,.04,.49,.24-.22,.04-.4,0-.49-.24Z"/>
      <path class="cls-1" d="M57.28,168.69c.21,0,.39,.03,.49,.25-.22,.02-.39-.04-.49-.25Z"/>
      <path class="cls-1" d="M98.51,197.45c.21-.01,.39,.03,.49,.25-.22,.02-.4-.02-.49-.25Z"/>
      <path class="cls-1" d="M100.19,198.65c.21,0,.4,.03,.49,.25-.21,.01-.39-.03-.49-.25Z"/>
      <path class="cls-1" d="M100.91,199.13c.21,0,.39,.03,.49,.25-.22,.02-.39-.04-.49-.25Z"/>
      <path class="cls-1" d="M101.63,199.61c.21-.01,.39,.04,.49,.25-.22,.02-.4,0-.49-.25Z"/>
      <path class="cls-1" d="M103.3,200.81c.21,0,.39,.03,.49,.25-.22,.02-.39-.04-.49-.25Z"/>
      <path class="cls-1" d="M59.68,170.36c.21,0,.39,.03,.49,.25-.22,.02-.39-.04-.49-.25Z"/>
      <path class="cls-1" d="M21.56,143.75c.21-.01,.39,.03,.49,.25-.22,.02-.4-.02-.49-.25Z"/>
      <path class="cls-1" d="M108.82,204.65c.21-.01,.39,.03,.49,.25-.22,.02-.4-.02-.49-.25Z"/>
      <path class="cls-1" d="M109.54,205.13c.21-.01,.39,.04,.49,.25-.22,.02-.4-.01-.49-.25Z"/>
      <path class="cls-1" d="M52.25,165.09c.08,.08,.17,.17,.25,.25-.08-.08-.17-.17-.25-.25Z"/>
      <path class="cls-1" d="M52.97,165.57c.08,.08,.17,.17,.25,.25-.08-.08-.17-.17-.25-.25Z"/>
      <path class="cls-1" d="M53.21,165.81c.08,.08,.17,.17,.25,.25-.08-.08-.17-.17-.25-.25Z"/>
      <path class="cls-1" d="M56.93,168.44c.12,.08,.24,.17,.36,.25-.12-.08-.24-.17-.36-.25Z"/>
      <path class="cls-1" d="M58.48,169.4c.08,.08,.17,.17,.25,.25-.14-.02-.24-.09-.25-.25Z"/>
      <path class="cls-1" d="M59.44,170.12c.08,.08,.17,.17,.25,.25-.08-.08-.17-.17-.25-.25Z"/>
      <path class="cls-1" d="M63.27,172.76c.08,.08,.17,.17,.25,.25-.08-.08-.17-.17-.25-.25Z"/>
      <path class="cls-1" d="M64.95,173.96c.08,.08,.17,.17,.25,.25-.08-.08-.17-.17-.25-.25Z"/>
      <path class="cls-1" d="M19.65,142.31c.08,.08,.17,.17,.25,.25-.08-.08-.17-.17-.25-.25Z"/>
      <path class="cls-1" d="M66.39,174.92c.08,.08,.17,.17,.25,.25-.14-.02-.24-.09-.25-.25Z"/>
      <path class="cls-1" d="M66.63,175.16c.08,.08,.17,.17,.25,.25-.08-.08-.17-.17-.25-.25Z"/>
      <path class="cls-1" d="M19.89,142.55c.08,.08,.17,.17,.25,.25-.08-.08-.17-.17-.25-.25Z"/>
      <path class="cls-1" d="M90.25,191.7c.12,.08,.24,.17,.37,.25-.12-.08-.24-.17-.37-.25Z"/>
      <path class="cls-1" d="M21.32,143.51c.08,.08,.17,.17,.25,.25-.08-.08-.17-.17-.25-.25Z"/>
      <path class="cls-1" d="M91.8,192.66c.08,.08,.17,.17,.25,.25-.14-.02-.24-.09-.25-.25Z"/>
      <path class="cls-1" d="M22.04,143.99c.08,.08,.17,.17,.25,.25-.08-.08-.17-.17-.25-.25Z"/>
      <path class="cls-1" d="M92.76,193.38c.08,.08,.17,.17,.25,.25-.08-.08-.17-.17-.25-.25Z"/>
      <path class="cls-1" d="M22.76,144.47c.08,.08,.17,.17,.25,.25-.14-.02-.24-.09-.25-.25Z"/>
      <path class="cls-1" d="M95.88,195.53c.08,.08,.17,.17,.25,.25-.08-.08-.17-.17-.25-.25Z"/>
      <path class="cls-1" d="M96.59,196.01c.08,.08,.16,.16,.25,.25-.08-.08-.16-.16-.25-.25Z"/>
      <path class="cls-1" d="M97.31,196.49c.08,.08,.16,.16,.25,.25-.14-.02-.25-.08-.25-.25Z"/>
      <path class="cls-1" d="M98.27,197.21c.08,.08,.17,.17,.25,.25-.08-.08-.17-.17-.25-.25Z"/>
      <path class="cls-1" d="M99.71,198.17c.08,.08,.17,.17,.25,.25-.14-.02-.24-.09-.25-.25Z"/>
      <path class="cls-1" d="M99.95,198.41c.08,.08,.17,.17,.25,.25-.08-.08-.17-.17-.25-.25Z"/>
      <path class="cls-1" d="M100.67,198.89c.08,.08,.17,.17,.25,.25-.08-.08-.17-.17-.25-.25Z"/>
      <path class="cls-1" d="M101.39,199.37c.08,.08,.17,.17,.25,.25-.08-.08-.17-.17-.25-.25Z"/>
      <path class="cls-1" d="M102.11,199.85c.08,.08,.17,.17,.25,.25-.14-.02-.24-.09-.25-.25Z"/>
      <path class="cls-1" d="M103.07,200.57c.08,.08,.17,.17,.25,.25-.08-.08-.17-.17-.25-.25Z"/>
      <path class="cls-1" d="M109.3,204.88c.08,.08,.17,.17,.25,.25-.08-.08-.17-.17-.25-.25Z"/>
      <path class="cls-1" d="M110.02,205.36c.08,.11,.17,.21,.25,.32-.08-.11-.17-.21-.25-.32Z"/>
      <path class="cls-4" d="M150.18,146.64c.06,.35-.11,.44-.32,.45-.63,.01-.55-.56-.7-.91-.1-.24,.03-.51,.34-.44,.51,.11,.45,.67,.68,.91Z"/>
      <path class="cls-4" d="M150.25,143.87c-.03,.23-.18,.34-.4,.34-.26,0-.48-.07-.44-.39,.03-.25,.24-.28,.44-.28,.22,0,.37,.1,.4,.34Z"/>
      <path class="cls-4" d="M185.8,35.13c-.21,0-.42-.05-.39-.3,.02-.2,.2-.33,.42-.35,.24-.02,.39,.1,.38,.33,0,.23-.18,.33-.4,.33Z"/>
      <path class="cls-4" d="M191.51,19.52c.19-.24,.4-.45,.75-.35-.03,.59-.21,.86-.75,.35Z"/>
      <path class="cls-4" d="M172.17,82.96c.25-.02,.38,.04,.38,.24,0,.17-.07,.31-.26,.33-.16,.01-.35-.02-.32-.23,.02-.13,.14-.25,.19-.33Z"/>
      <path class="cls-4" d="M149.3,148.69c-.03,.17-.13,.29-.3,.3-.17,0-.33-.1-.28-.27,.03-.13,.18-.27,.31-.31,.17-.05,.26,.11,.28,.28Z"/>
      <path class="cls-4" d="M168.25,98.85c.05,.1,.14,.2,.14,.29,0,.21-.16,.24-.31,.19-.08-.02-.12-.15-.18-.22,.08-.06,.16-.12,.35-.26Z"/>
      <path class="cls-4" d="M166.29,102.04c-.12-.07-.26-.11-.28-.19-.05-.19,.1-.27,.26-.25,.08,.01,.2,.12,.21,.19,0,.07-.11,.15-.19,.24Z"/>
      <path class="cls-4" d="M164.14,107.64c.07,.03,.17,.04,.19,.09,.02,.05-.05,.13-.08,.2-.07-.03-.17-.04-.19-.09-.02-.05,.05-.13,.08-.2Z"/>
      <path class="cls-4" d="M141.49,164.52c-.07-.03-.17-.04-.19-.09-.02-.05,.05-.13,.08-.2,.07,.03,.17,.04,.19,.09,.02,.05-.05,.13-.08,.2Z"/>
      <path class="cls-4" d="M143.74,156.76c-.07,.03-.15,.09-.2,.07-.05-.02-.06-.13-.08-.19,.07-.03,.15-.09,.2-.07,.05,.02,.06,.13,.08,.19Z"/>
      <path class="cls-4" d="M136.06,176.53c-.03,.07-.06,.13-.09,.2-.07-.03-.17-.04-.19-.09-.02-.05,.05-.13,.08-.2,.07,.03,.13,.06,.2,.09Z"/>
    </g>
  </g>
</svg>