<svg viewBox="0 0 448.281 165.8" xmlns="http://www.w3.org/2000/svg"><g fill="#1787fb"><g transform="translate(-171.86 -224.65)"><path d="m472.418 357.034h-17.347v-67.927h17.347z"/><path d="m545.823 289.473v15.338h-45.468v52.223h-17.347v-66.834c0-18.077 10.774-31.407 30.312-29.216v16.252c-8.217-.731-12.782 2.739-12.965 12.051h45.468z"/><path d="m553.674 289.473v15.338h-12.234v52.223h-17.347v-66.834c0-18.077 10.774-31.407 30.312-29.216v16.252c-8.217-.731-12.782 2.739-12.965 12.051h12.234z"/><path d="m620.14 359.773c0 18.26-12.051 30.494-30.128 30.494-14.974 0-27.208-9.677-29.581-23.737h18.077c1.095 4.93 5.478 7.486 11.5 7.486 9.5 0 12.782-6.756 12.782-12.964v-7.852a23.289 23.289 0 0 1 -15.521 5.478c-16.617 0-27.573-12.052-27.573-29.764v-39.807h17.347v39.625c0 3.834 1.278 13.329 12.6 13.329 7.852 0 13.147-5.66 13.147-13.329v-39.625h17.35z"/></g><path d="m255.821 35.972h17.53v96.96h-17.53z"/><circle cx="291.976" cy="48.389" r="10.591"/><path d="m419.1 353.748c0 22.459-13.513 36.7-35.242 36.7-16.251 0-30.311-9.313-32.868-23.738h19.173c2.191 5.478 9.13 7.487 13.878 7.487 12.234 0 17.712-8.035 17.712-20.086v-3.47a28.767 28.767 0 0 1 -20.086 7.852c-17.712 0-32.32-15.338-32.32-35.241 0-20.086 14.608-35.425 32.32-35.425a28.25 28.25 0 0 1 20.816 8.765v-7.3h16.617v64.458zm-34.878-49.848c-9.677 0-17.347 8.4-17.347 19.538 0 10.773 7.852 19.173 17.347 19.173 9.678 0 17.347-8.582 17.347-19.173.183-10.775-7.669-19.538-17.347-19.538z" transform="translate(-171.86 -224.65)"/><path d="m255.125 386.615-83.265-83.265 4.565-2.374 78.882-42 83.266 44.371-83.448 83.265zm0-23.737 63.544-59.528-63.544-35.241-63.545 35.241z" transform="translate(-171.86 -224.65)"/><path d="m261.151 365.251s-11.5-68.292 25.929-105.725l16.251 8.583-8.582-43.459-50.4 12.417 11.687 6.208c-13.878 16.982-20.817 40.9-21.912 65.918-.548 10.774 1.278 27.755 3.652 41.816l14.243 23.372z" transform="translate(-171.86 -224.65)"/></g></svg>