<?xml version="1.0" ?><svg height="36" id="svg4488" version="1.1" width="36" xmlns="http://www.w3.org/2000/svg" xmlns:cc="http://creativecommons.org/ns#" xmlns:dc="http://purl.org/dc/elements/1.1/" xmlns:inkscape="http://www.inkscape.org/namespaces/inkscape" xmlns:rdf="http://www.w3.org/1999/02/22-rdf-syntax-ns#" xmlns:sodipodi="http://sodipodi.sourceforge.net/DTD/sodipodi-0.dtd" xmlns:svg="http://www.w3.org/2000/svg"><defs id="defs4490"/><g id="layer1" transform="translate(0,-1016.3622)"><path d="m 5,1025.3622 26,0 0,16 -23.5,0 -2.5,0 z m 1.5,1 c -0.1326,0 -0.25976,0.053 -0.35351,0.1465 -0.0938,0.094 -0.14646,0.2209 -0.14649,0.3535 l 0,12 c 3e-5,0.1326 0.0527,0.2598 0.14649,0.3535 0.0938,0.094 0.22091,0.1465 0.35351,0.1465 l 17,0 c 0.18961,-2e-4 0.36282,-0.1076 0.44727,-0.2773 0.0346,-0.069 0.0526,-0.1454 0.0527,-0.2227 l 0,-12 c 1.7e-4,-0.078 -0.0179,-0.1549 -0.0527,-0.2246 -0.085,-0.169 -0.25809,-0.2756 -0.44727,-0.2754 z m 19,0 c -0.27613,0 -0.49997,0.2239 -0.5,0.5 l 0,3 c 10e-6,0.1672 0.0836,0.3233 0.22266,0.416 0.0821,0.055 0.17863,0.084 0.27734,0.084 l 4,0 c 0.1326,0 0.25976,-0.053 0.35352,-0.1465 0.0938,-0.094 0.14646,-0.2209 0.14648,-0.3535 l 0,-3 c -3e-5,-0.2761 -0.22387,-0.4999 -0.5,-0.5 z m -18.5,1 16,0 0,11 -16,0 z m 19,0 3,0 0,2 -3,0 z m -4.50781,2.9922 c -0.27614,0 -0.49651,0.2317 -0.49219,0.5078 l 0,4 c -0.01,0.6762 1.00956,0.6762 1,0 l 0,-4 c 0.004,-0.2823 -0.22555,-0.5122 -0.50781,-0.5078 z m 3.9668,1.0078 c -0.67616,-0.01 -0.67616,1.0096 0,1 l 1.11719,0 c 0.67616,0.01 0.67616,-1.0096 0,-1 z m 2.97461,0 c -0.67616,-0.01 -0.67616,1.0096 0,1 l 1.13281,0 c 0.67616,0.01 0.67616,-1.0096 0,-1 z m -2.92774,2 c -0.67616,-0.01 -0.67616,1.0096 0,1 l 1.13477,0 c 0.67616,0.01 0.67616,-1.0096 0,-1 z m 2.92774,0 c -0.67616,-0.01 -0.67616,1.0096 0,1 l 1.13281,0 c 0.67616,0.01 0.67616,-1.0096 0,-1 z m -0.9336,2 c -1.37479,0 -2.5,1.1252 -2.5,2.5 0,1.3748 1.12521,2.5 2.5,2.5 1.37479,0 2.5,-1.1252 2.5,-2.5 0,-1.3748 -1.12521,-2.5 -2.5,-2.5 z m 0,1 c 0.23247,0 0.44901,0.056 0.64454,0.1484 l -1.9961,1.9961 C 26.05584,1038.3112 26,1038.0947 26,1037.8622 c 0,-0.8343 0.66565,-1.5 1.5,-1.5 z m 1.35157,0.8555 c 0.0926,0.1955 0.14843,0.412 0.14843,0.6445 0,0.8344 -0.66565,1.5 -1.5,1.5 -0.23246,0 -0.449,-0.056 -0.64453,-0.1484 z M 8,1042.3622 l 3,0 0,1 -3,0 z m 16.5,0 3,0 0,1 -3,0 z" id="rect5233" style="font-size:medium;font-style:normal;font-variant:normal;font-weight:normal;font-stretch:normal;text-indent:0;text-align:start;text-decoration:none;line-height:normal;letter-spacing:normal;word-spacing:normal;text-transform:none;direction:ltr;block-progression:tb;writing-mode:lr-tb;text-anchor:start;baseline-shift:baseline;color:#000000;fill:#000000;fill-opacity:1;fill-rule:nonzero;stroke:none;visibility:visible;display:inline;overflow:visible;enable-background:accumulate;font-family:sans-serif"/></g></svg>