<?xml version="1.0" standalone="no"?>
<!DOCTYPE svg PUBLIC "-//W3C//DTD SVG 20010904//EN"
 "http://www.w3.org/TR/2001/REC-SVG-20010904/DTD/svg10.dtd">
<svg version="1.0" xmlns="http://www.w3.org/2000/svg"
 width="187.000000pt" height="123.000000pt" viewBox="0 0 187.000000 123.000000"
 preserveAspectRatio="xMidYMid meet">

<g transform="translate(0.000000,123.000000) scale(0.100000,-0.100000)"
fill="#000000" stroke="none">
<path d="M967 1178 c-3 -12 -2 -29 3 -37 7 -12 9 -6 10 22 0 42 -5 48 -13 15z"/>
<path d="M750 1161 l-25 -25 26 16 c18 11 30 13 43 6 26 -14 28 -6 3 12 -20
15 -24 14 -47 -9z"/>
<path d="M893 1183 c21 -6 22 -17 1 -37 -8 -9 -12 -16 -7 -16 5 0 14 5 20 11
8 8 13 8 17 0 4 -6 12 -11 18 -11 6 0 3 9 -8 21 -16 17 -16 22 -4 29 11 7 5 9
-20 9 -19 -1 -27 -3 -17 -6z"/>
<path d="M1051 1153 c-1 -23 4 -33 14 -33 27 0 16 -29 -12 -33 -16 -2 -3 -4
27 -4 30 0 45 2 33 4 -13 2 -23 11 -23 20 0 10 6 14 20 10 17 -4 20 0 19 31 0
21 -3 31 -6 25 -2 -7 -17 -13 -33 -13 -16 0 -31 6 -33 13 -3 6 -6 -3 -6 -20z
m69 -13 c0 -5 -13 -10 -30 -10 -16 0 -30 5 -30 10 0 6 14 10 30 10 17 0 30 -4
30 -10z"/>
<path d="M654 1150 c3 -14 9 -42 12 -62 4 -21 10 -38 14 -38 9 0 -15 109 -26
118 -4 4 -4 -4 0 -18z"/>
<path d="M1208 1145 c-3 -14 -1 -25 3 -25 5 0 9 11 9 25 0 14 -2 25 -4 25 -2
0 -6 -11 -8 -25z"/>
<path d="M1248 1153 c7 -3 16 -2 19 1 4 3 -2 6 -13 5 -11 0 -14 -3 -6 -6z"/>
<path d="M600 1139 c-24 -7 -24 -7 -2 -8 26 -1 28 -18 6 -49 -9 -13 -14 -26
-11 -29 10 -10 38 46 35 69 -3 20 -7 23 -28 17z"/>
<path d="M773 1126 c-4 -7 -15 -16 -23 -19 -12 -4 -12 -6 2 -6 9 -1 23 5 31
13 7 8 25 16 38 19 20 3 18 5 -8 6 -18 0 -36 -5 -40 -13z"/>
<path d="M1238 1133 c7 -3 16 -2 19 1 4 3 -2 6 -13 5 -11 0 -14 -3 -6 -6z"/>
<path d="M495 1098 c14 -44 22 -52 27 -26 3 18 -1 29 -15 37 -17 11 -18 10
-12 -11z"/>
<path d="M810 1105 c0 -8 4 -15 10 -15 5 0 7 7 4 15 -4 8 -8 15 -10 15 -2 0
-4 -7 -4 -15z"/>
<path d="M1226 1105 c-3 -9 0 -15 9 -15 8 0 15 7 15 15 0 8 -4 15 -9 15 -5 0
-11 -7 -15 -15z"/>
<path d="M1361 1091 c-17 -18 -19 -22 -6 -17 11 4 23 0 31 -11 12 -16 13 -14
7 17 -3 19 -6 35 -7 36 -1 0 -12 -11 -25 -25z"/>
<path d="M426 1088 c-19 -18 -19 -18 15 -7 43 15 44 15 22 21 -10 3 -27 -4
-37 -14z"/>
<path d="M900 1096 c0 -18 33 -30 60 -21 20 6 28 35 10 35 -5 0 -9 -6 -7 -12
1 -8 -8 -13 -23 -13 -15 0 -24 5 -22 13 1 6 -2 12 -8 12 -5 0 -10 -6 -10 -14z"/>
<path d="M1427 1070 c-9 -24 -15 -45 -12 -48 6 -6 36 70 32 81 -1 5 -11 -10
-20 -33z"/>
<path d="M750 1075 c0 -10 9 -15 28 -14 25 2 26 2 3 6 -19 4 -21 7 -10 14 11
7 11 9 -3 9 -10 0 -18 -7 -18 -15z"/>
<path d="M1268 1083 c7 -3 16 -2 19 1 4 3 -2 6 -13 5 -11 0 -14 -3 -6 -6z"/>
<path d="M469 1067 c6 -8 9 -17 6 -21 -3 -3 0 -2 6 3 12 10 4 31 -13 31 -7 0
-7 -4 1 -13z"/>
<path d="M1190 1072 c0 -17 25 -32 52 -32 29 0 37 13 16 26 -7 4 -8 3 -4 -4 5
-8 -1 -12 -18 -12 -32 0 -43 17 -14 23 20 4 19 4 -4 6 -16 0 -28 -3 -28 -7z"/>
<path d="M435 1060 c-8 -12 2 -30 17 -30 7 0 7 4 -1 13 -6 8 -8 17 -4 20 3 4
4 7 0 7 -3 0 -9 -4 -12 -10z"/>
<path d="M341 1056 c-1 -13 53 -106 62 -106 4 0 0 11 -9 25 -8 13 -13 29 -9
35 3 5 0 10 -8 10 -8 0 -19 10 -25 23 -6 12 -11 18 -11 13z"/>
<path d="M1506 1044 c-10 -26 -8 -30 29 -47 33 -16 35 -16 45 3 14 25 13 30
-4 24 -8 -3 -24 4 -35 15 -25 25 -27 25 -35 5z m56 -42 c-16 -5 -53 17 -47 28
4 6 17 2 32 -7 14 -9 21 -19 15 -21z"/>
<path d="M820 1040 c-52 -4 -135 -18 -184 -30 -321 -80 -490 -257 -435 -454
65 -233 617 -267 767 -46 28 42 25 97 -7 141 -54 72 7 156 149 205 80 28 265
26 336 -2 75 -31 120 -69 149 -127 91 -183 -76 -364 -408 -444 -55 -14 -114
-18 -252 -17 -162 0 -190 3 -282 27 -72 19 -109 24 -125 18 -23 -9 -23 -9 7
-21 126 -50 348 -76 516 -60 236 22 408 86 526 194 81 73 108 126 107 206 0
86 -28 143 -103 212 -159 148 -445 222 -761 198z m-438 -310 l-3 -105 68 108
c58 92 71 107 94 107 26 0 26 -1 35 -100 l9 -100 55 98 56 97 43 3 c24 2 41
-1 40 -6 -2 -5 -49 -84 -104 -176 -96 -159 -101 -166 -132 -166 -30 0 -32 3
-37 43 -4 23 -7 67 -9 97 l-2 55 -60 -97 c-58 -95 -61 -97 -97 -98 l-38 0 0
168 c0 93 3 172 7 176 4 4 23 6 43 4 l35 -3 -3 -105z m528 28 c0 -40 3 -117 7
-170 l6 -98 -51 0 c-51 0 -52 1 -52 30 0 28 -2 30 -40 30 -35 0 -43 -4 -58
-30 -15 -27 -22 -30 -65 -30 -27 0 -46 3 -44 8 2 4 48 80 101 170 l97 162 50
0 49 0 0 -72z"/>
<path d="M797 660 l-28 -50 30 0 c30 0 31 1 31 50 0 28 -1 50 -2 50 -2 0 -16
-23 -31 -50z"/>
<path d="M1347 1043 c-15 -15 -5 -32 25 -42 17 -6 33 -9 35 -7 2 2 -10 8 -26
14 -22 8 -29 15 -25 26 6 17 2 21 -9 9z"/>
<path d="M480 1025 c-29 -16 -19 -20 11 -4 15 8 24 7 36 -3 14 -11 15 -11 11
2 -6 20 -28 22 -58 5z"/>
<path d="M295 1014 c-20 -16 -20 -16 3 -9 17 5 27 2 37 -12 17 -21 20 -10 5
18 -13 23 -19 23 -45 3z"/>
<path d="M1490 991 c20 -16 22 -21 11 -35 -7 -9 -10 -16 -6 -16 4 0 13 7 20
16 9 14 16 14 33 5 43 -23 21 -2 -24 23 -55 30 -69 33 -34 7z"/>
<path d="M315 954 c0 -29 3 -29 35 -4 15 13 18 18 7 14 -9 -3 -23 -2 -30 4 -9
8 -12 4 -12 -14z"/>
<path d="M1637 394 c-3 -4 -2 -15 4 -26 10 -18 8 -19 -20 -13 -39 8 -42 -10
-3 -20 15 -3 35 -14 45 -22 23 -21 35 -8 14 15 -10 10 -17 25 -17 33 0 19 -15
41 -23 33z"/>
<path d="M225 320 c-19 -56 -15 -71 12 -48 38 32 45 31 28 -2 -26 -49 -5 -54
45 -10 28 24 39 39 29 40 -9 0 -24 -9 -34 -20 -25 -27 -30 -18 -11 19 21 39 3
51 -30 20 -26 -24 -31 -20 -13 13 7 13 7 24 1 30 -6 6 -16 -8 -27 -42z"/>
<path d="M1542 318 c-33 -21 -44 -42 -16 -31 12 4 26 -5 45 -28 32 -38 40 -19
9 21 -14 18 -16 28 -8 38 18 21 4 22 -30 0z"/>
<path d="M342 251 c-12 -21 -22 -44 -22 -50 0 -14 57 -43 64 -32 3 4 -6 13
-20 20 -14 6 -24 17 -21 24 5 13 9 13 42 2 16 -6 16 -3 -5 13 -30 25 -20 40
15 24 35 -16 32 4 -3 22 -28 15 -29 14 -50 -23z"/>
<path d="M1480 271 c0 -16 41 -81 51 -81 5 0 0 18 -11 39 -20 40 -40 61 -40
42z"/>
<path d="M426 197 c-21 -56 -22 -55 20 -63 42 -8 50 -1 59 47 6 31 4 36 -20
47 -38 18 -41 16 -59 -31z m62 5 c3 -9 -2 -13 -14 -10 -9 1 -19 9 -22 16 -3 9
2 13 14 10 9 -1 19 -9 22 -16z m-19 -31 c19 -12 5 -30 -19 -24 -21 5 -25 15
-13 26 8 9 15 9 32 -2z"/>
<path d="M1390 235 c0 -2 10 -24 22 -49 20 -42 23 -44 47 -33 41 17 50 30 16
23 -28 -6 -33 -3 -48 29 -9 19 -21 35 -27 35 -5 0 -10 -2 -10 -5z"/>
<path d="M1356 198 c14 -46 31 -78 36 -72 9 8 -22 94 -34 94 -5 0 -6 -10 -2
-22z"/>
<path d="M1263 193 c-16 -6 -16 -17 -2 -66 10 -35 13 -38 37 -32 40 9 56 28
44 51 -6 11 -13 27 -16 37 -5 16 -36 22 -63 10z m37 -33 c-21 -14 -30 -12 -30
4 0 18 22 27 35 14 6 -6 5 -12 -5 -18z m20 -40 c-22 -14 -40 -12 -40 4 0 17
31 26 45 14 6 -6 5 -12 -5 -18z"/>
<path d="M586 145 c-28 -46 -29 -69 -2 -46 12 10 19 8 36 -9 12 -12 24 -20 26
-17 8 8 -11 110 -21 114 -6 1 -23 -17 -39 -42z m30 -22 c-10 -10 -19 5 -10 18
6 11 8 11 12 0 2 -7 1 -15 -2 -18z"/>
<path d="M1200 169 c0 -25 23 -98 30 -94 10 6 -10 105 -21 105 -5 0 -9 -5 -9
-11z"/>
<path d="M697 152 c-20 -22 -22 -63 -5 -80 15 -15 55 -16 63 -1 11 16 -3 23
-19 10 -21 -18 -36 -5 -36 30 0 37 24 48 50 24 11 -10 20 -13 20 -7 0 10 -38
42 -51 42 -3 0 -13 -8 -22 -18z"/>
<path d="M1112 158 c-24 -24 -14 -47 23 -54 19 -3 35 -10 35 -14 0 -15 -33
-20 -48 -8 -13 11 -14 10 -10 -2 3 -9 17 -15 34 -15 24 0 29 4 29 25 0 20 -6
26 -29 30 -36 6 -36 26 0 23 27 -2 33 12 8 21 -22 8 -28 8 -42 -6z"/>
<path d="M801 136 c-20 -23 -9 -78 16 -87 22 -8 64 13 51 27 -4 4 -14 1 -22
-5 -21 -18 -36 -5 -36 29 0 33 16 48 33 31 6 -6 17 -11 25 -11 12 0 12 3 2 15
-16 19 -54 19 -69 1z"/>
<path d="M900 95 l0 -55 34 0 c19 0 38 5 41 10 4 6 -7 10 -24 10 -21 0 -31 5
-31 15 0 9 9 15 25 15 14 0 25 5 25 10 0 6 -11 10 -25 10 -14 0 -25 5 -25 10
0 6 11 10 25 10 14 0 25 5 25 10 0 6 -16 10 -35 10 l-35 0 0 -55z"/>
<path d="M1007 144 c-18 -18 -6 -45 23 -50 17 -4 30 -11 30 -16 0 -16 -30 -20
-47 -7 -14 12 -16 12 -11 -1 3 -9 17 -15 39 -15 28 0 35 4 37 23 3 18 -2 23
-27 28 -18 4 -34 11 -37 15 -9 16 26 22 43 8 14 -12 16 -12 11 1 -5 16 -49 26
-61 14z"/>
</g>
</svg>
